<svg width="60" height="57" viewBox="0 0 60 57" fill="none" xmlns="http://www.w3.org/2000/svg">
<path d="M6.15248 22.5577L15.3501 3.94918V0.442308H0V4.51786H10.2852L1.39829 22.5577H6.15248Z" fill="white"/>
<path d="M26.6391 15.7967V11.7843H17.0375V15.7967H26.6391Z" fill="white"/>
<path d="M39.223 22.5577V0.442308H35.3389L30.2429 3.22253V7.6772L34.8417 5.30769V22.5577H39.223Z" fill="white"/>
<path d="M52.1074 23C54.3758 23 56.2402 22.2734 57.7317 20.8201C59.2542 19.3668 60 17.5027 60 15.1964C60 13.0165 59.3475 11.3104 58.0113 10.0151C56.6752 8.71978 55.0283 8.05632 53.0396 8.05632C50.8024 8.05632 49.1244 8.75137 47.9747 10.1099C48.099 8.37225 48.6583 6.95055 49.6837 5.81319C50.7091 4.67582 52.1385 4.10714 53.9097 4.10714C55.4944 4.10714 56.9548 4.58104 58.322 5.52885V1.4217C56.9238 0.473901 55.2769 0 53.4125 0C46.6696 0 43.438 6.09753 43.438 12.6374C43.438 19.0824 46.6386 23 52.1074 23ZM51.8278 19.0824C49.4662 19.0824 47.9747 17.3764 47.8504 14.375C48.4719 12.7637 50.1187 11.5948 51.8278 11.5948C53.9718 11.5948 55.5565 13.1429 55.5565 15.2912C55.5565 17.5343 54.034 19.0824 51.8278 19.0824Z" fill="white"/>
<path fill-rule="evenodd" clip-rule="evenodd" d="M60 33H0V32H60V33Z" fill="white"/>
<path d="M1.11021 56.7845L8.9533 46.4061V56.7845H10.2605V44.2155H9.09656L1.30718 54.558V44.2155H0V56.7845H1.11021Z" fill="white"/>
<path d="M25.3295 57C27.0127 57 28.4094 56.3715 29.5196 55.1326C30.6477 53.8936 31.2028 52.3494 31.2028 50.5C31.2028 48.6506 30.6477 47.1064 29.5196 45.8674C28.4094 44.6285 27.0127 44 25.3295 44C23.7716 44 22.4465 44.5387 21.3542 45.634C20.2619 46.7293 19.6352 48.0939 19.474 49.7638H16.8954V44.2155H15.5704V56.7845H16.8954V50.9669H19.4561C19.5635 52.7086 20.1724 54.145 21.2647 55.2942C22.357 56.4254 23.7179 57 25.3295 57ZM22.0884 54.3066C21.2109 53.337 20.7812 52.0622 20.7812 50.5C20.7812 48.9378 21.2109 47.663 22.0884 46.6934C22.9658 45.7238 24.0402 45.239 25.3295 45.239C26.6187 45.239 27.6931 45.7238 28.5526 46.6934C29.4301 47.663 29.8598 48.9378 29.8598 50.5C29.8598 52.0622 29.4301 53.337 28.5526 54.3066C27.6931 55.2762 26.6187 55.761 25.3295 55.761C24.0402 55.761 22.9658 55.2762 22.0884 54.3066Z" fill="white"/>
<path d="M33.99 56.7845C34.0795 56.8025 34.2585 56.8025 34.4913 56.8025C36.3715 56.7307 37.3564 55.7431 37.8578 53.6064C38.2159 52.116 38.3233 50.6077 38.395 48.2914L38.4845 45.4185H43.7132V56.7845H45.0383V44.2155H37.1952L37.1236 47.645C37.1057 48.489 37.0878 49.2251 37.052 49.8356C37.0162 50.4461 36.9624 51.0746 36.8908 51.7389C36.8371 52.3854 36.7297 52.924 36.6043 53.355C36.2283 54.7196 35.6374 55.5994 34.4913 55.5994C34.2585 55.5994 34.0795 55.5815 33.99 55.5635V56.7845Z" fill="white"/>
<path d="M50.8855 56.7845L54.8429 51.1285H58.6749V56.7845H60V44.2155H54.3773C51.9241 44.2155 50.4379 45.5622 50.4379 47.6271C50.4379 49.4047 51.5123 50.6975 53.3925 51.0028L49.3456 56.7845H50.8855ZM54.4669 49.9254C52.7478 49.9254 51.7451 49.1174 51.7451 47.6809C51.7451 46.2445 52.7478 45.4185 54.4669 45.4185H58.6749V49.9254H54.4669Z" fill="white"/>
</svg>
