<svg width="195" height="24" viewBox="0 0 195 24" fill="none" xmlns="http://www.w3.org/2000/svg">
<path d="M14.4506 0H24.3506L10.3506 24H0.450562L14.4506 0Z" fill="#E9530E"/>
<path d="M33.3506 0H43.2506L29.2506 24H19.3506L33.3506 0Z" fill="#E9530E"/>
<path d="M52.2505 0H62.1505L48.1505 24H38.2505L52.2505 0Z" fill="#E9530E"/>
<path d="M71.1506 0H81.0506L67.0506 24H57.1506L71.1506 0Z" fill="#E9530E"/>
<path d="M90.0505 0H99.9505L85.9505 24H76.0505L90.0505 0Z" fill="#E9530E"/>
<path d="M108.951 0H118.851L104.851 24H94.9506L108.951 0Z" fill="#E9530E"/>
<path d="M127.851 0H137.751L123.751 24H113.851L127.851 0Z" fill="#E9530E"/>
<path d="M146.751 0H156.651L142.651 24H132.751L146.751 0Z" fill="#E9530E"/>
<path d="M165.651 0H175.551L161.551 24H151.651L165.651 0Z" fill="#E9530E"/>
<path d="M184.551 0H194.451L180.451 24H170.551L184.551 0Z" fill="#E9530E"/>
<path d="M203.45 0H213.35L199.35 24H189.451L203.45 0Z" fill="#E9530E"/>
</svg>
