<svg width="106" height="37" viewBox="0 0 106 37" fill="none" xmlns="http://www.w3.org/2000/svg">
<g clip-path="url(#clip0_1_184)">
<path d="M53.2728 16.0334H54.3691L56.0079 12.1723H58.1744L58.5423 11.3138H53.1093L52.7451 12.1723H54.9116L53.2728 16.0334Z" fill="white"/>
<path fill-rule="evenodd" clip-rule="evenodd" d="M106.05 11.5442C105.916 11.325 105.533 11.3138 105.236 11.3138H101.762C101.457 11.3138 101.074 11.325 100.751 11.5442C100.39 11.7895 100.204 12.228 100.119 12.4324L99.0636 14.9185C98.9781 15.1192 98.796 15.5577 98.9447 15.8067C99.0785 16.0259 99.4612 16.0334 99.7622 16.0334H103.237C103.538 16.0334 103.928 16.0222 104.248 15.8067C104.607 15.5586 104.793 15.1225 104.878 14.9208L105.935 12.4324C106.02 12.2317 106.206 11.7895 106.057 11.5442H106.05ZM100.056 15.1749L101.33 12.176H104.95L103.679 15.1749H100.056Z" fill="white"/>
<path d="M78.7249 12.3098L75.2354 16.0334H74.0908L78.6543 11.3138H79.7171L80.308 16.0334H79.0296L78.7249 12.3098Z" fill="white"/>
<path d="M27.7652 21.0167H23.8744L22.1204 25.2197H25.974L27.7652 21.0167Z" fill="white"/>
<path fill-rule="evenodd" clip-rule="evenodd" d="M96.5624 15.1118C96.4584 15.3459 96.28 15.6209 95.9047 15.8141H95.9084C95.6408 15.9516 95.2655 16.0334 94.7824 16.0334H90.9771L92.9801 11.3138H97.1793C97.4432 11.3138 97.7033 11.3882 97.8037 11.5442C97.9337 11.7338 97.8408 12.0199 97.7516 12.228L97.5064 12.804C97.4543 12.9229 97.3317 13.1682 97.0753 13.3429C96.9118 13.4544 96.6145 13.5733 96.3543 13.5993C96.5847 13.6179 96.7594 13.7182 96.8374 13.8557C96.9155 13.9746 96.9564 14.1864 96.8189 14.506L96.5624 15.1118ZM96.3023 12.0831H93.7493L93.2736 13.2054H95.8787C95.9679 13.2054 96.0756 13.1979 96.176 13.1348C96.2503 13.0902 96.3395 13.0084 96.3989 12.8709L96.5885 12.4213C96.6256 12.3284 96.6628 12.2169 96.5773 12.1463C96.503 12.0831 96.3581 12.0831 96.3023 12.0831ZM95.4179 13.9746H92.9503V13.9783L92.4412 15.1749H94.9088L94.9274 15.175C95.043 15.1754 95.2443 15.1761 95.3956 15.0635C95.5108 14.9817 95.574 14.8554 95.6185 14.7513L95.7709 14.3945C95.8118 14.2942 95.8564 14.1641 95.8118 14.0824C95.7556 13.9734 95.5498 13.9742 95.4364 13.9746L95.4179 13.9746Z" fill="white"/>
<path d="M88.5468 12.5476L87.0678 16.0334H88.1678L90.1708 11.3138H89.2529L83.8422 14.7996L85.3212 11.3138H84.2249L82.2219 16.0334H83.1361L88.5468 12.5476Z" fill="white"/>
<path fill-rule="evenodd" clip-rule="evenodd" d="M59.3451 16.0334C59.0404 16.0334 58.6613 16.0259 58.5275 15.8067H58.5312C58.3789 15.5577 58.5647 15.1192 58.6502 14.9185L59.7055 12.4324C59.791 12.228 59.9768 11.7895 60.3373 11.5442C60.6569 11.325 61.0471 11.3138 61.3481 11.3138H64.8227C65.1274 11.3138 65.5065 11.325 65.644 11.5442C65.7926 11.7932 65.6068 12.2317 65.5214 12.4324L64.465 14.9208C64.3791 15.1225 64.1933 15.5586 63.8342 15.8067C63.5109 16.0222 63.1244 16.0334 62.8197 16.0334H59.3451ZM63.2582 15.1749L64.5329 12.176H60.9096L59.6349 15.1749H63.2582Z" fill="white"/>
<path d="M69.4346 12.1723H72.7271L71.0883 16.0334H72.1845L74.1913 11.3138H68.7025L66.6995 16.0334H67.7957L69.4346 12.1723Z" fill="white"/>
<path d="M62.2512 33.399L67.5802 20.8904H73.043L67.7103 33.399H62.2512Z" fill="white"/>
<path d="M77.532 30.0619L85.4177 20.8904H89.8623L79.9884 32.4217C79.9884 32.4217 79.2006 33.399 78.0374 33.399H72.4817C71.7274 33.399 70.9841 32.5666 71.4264 31.5409L75.9378 20.8904H81.4526L77.532 30.0619Z" fill="white"/>
<path d="M90.3714 22.481C91.0775 20.8904 92.6197 20.8904 93.3146 20.8904L93.322 20.8867H102.527L101.353 23.6367H95.9196C95.292 23.6367 95.1617 23.9447 95.1207 24.0416L94.4072 25.6917H100.483L99.3125 28.4082L93.2589 28.4008L92.5045 30.1623C92.471 30.2366 92.4264 30.389 92.5082 30.5153C92.5491 30.5822 92.6494 30.6602 92.8649 30.6602H98.3537L97.1831 33.3991H88.3609C87.0008 33.3991 86.0272 32.4886 86.6404 31.1991L90.3714 22.481Z" fill="white"/>
<path d="M37.3379 18.2705L32.5478 14.7067H42.7858C44.6365 14.7067 46.45 15.1749 47.5685 16.8212C48.8506 18.7053 48.0591 20.9535 47.3939 22.5701L44.5845 29.0436C43.3581 31.8048 42.4774 33.3953 36.8288 33.3953H24.6138L30.4259 19.7644H35.8849L31.6076 29.8278H35.4761C38.3413 29.8278 39.1031 29.0511 39.4524 28.2893L42.9345 20.1732C43.0385 19.939 43.1575 19.2701 42.849 18.7982C42.6186 18.4488 42.1727 18.2705 41.5223 18.2705H37.3379Z" fill="white"/>
<path d="M51.1025 20.8904L51.1009 20.8941H51.0951L51.1025 20.8904Z" fill="white"/>
<path d="M51.1009 20.8941L45.7661 33.399H51.2252L55.3984 23.6403H57.3197C58.167 23.6292 58.5126 23.867 58.6241 24.1718C59.3116 26.067 53.5924 28.4788 53.5924 28.4788L62.0132 37.0037H62.8977L58.6909 28.9842C58.774 28.9407 58.9102 28.8824 59.0852 28.8075C60.3587 28.2624 63.6862 26.8381 63.5294 23.8224C63.4439 22.1353 62.0504 20.8941 58.2004 20.8941H51.1009Z" fill="white"/>
<path d="M3.76229 18.7759C4.90688 16.3269 7.06968 14.7067 12.0271 14.7067V14.7104H24.2978L19.2885 18.2779H11.6146C10.299 18.2779 9.33655 18.6086 8.75683 19.913L5.43085 27.665C4.46837 29.8315 6.47138 29.8315 6.47138 29.8315H12.3912L14.4128 25.0896H9.73418L15.6206 20.8941H21.6705L16.3452 33.399H5.75788C2.46164 33.399 -2.06466 31.6747 1.28733 24.5397L3.76229 18.7759Z" fill="white"/>
</g>
<defs>
<clipPath id="clip0_1_184">
<rect width="106" height="37" fill="white"/>
</clipPath>
</defs>
</svg>
