<svg width="126" height="37" viewBox="0 0 126 37" fill="none" xmlns="http://www.w3.org/2000/svg">
<path d="M11.7474 15.0084C6.85761 15.0084 4.72723 16.6104 3.60332 19.0175L1.1626 24.6958C-2.14201 31.7327 2.32006 33.427 5.56596 33.427H15.9998L21.2503 21.0976H15.4043L9.49124 25.2326H13.9365L11.9403 29.9043H6.43824C6.43824 29.9043 4.46722 29.9043 5.4066 27.7655L8.68605 20.1247C9.25639 18.8414 10.2042 18.5143 11.5042 18.5143H19.0696L24.1775 15H11.7474V15.0084Z" fill="white"/>
<path d="M35.6598 15.0084C32.4977 15.0084 31.3906 16.0736 30.4764 18.2795L26.5847 27.4385C24.6388 32.0767 27.457 33.4354 29.797 33.4354H39.6689L41.1619 29.9127H32.2797C31.6087 29.9127 31.3319 29.485 31.6255 28.7972L32.9339 25.6268H41.9754L43.3677 22.3809H34.3262L35.5004 19.6298C35.8024 18.9085 36.2804 18.5227 37.3792 18.5227H43.2335L48.2827 15.0084H35.6598Z" fill="white"/>
<path d="M58.1547 21.106L55.043 28.445L53.0971 22.0706C52.9042 21.2402 52.7029 21.106 51.8139 21.106H48.526C47.4832 21.106 47.3661 21.3824 47.0335 22.1671C46.9997 22.247 46.9636 22.3322 46.924 22.4229L42.2188 33.4354H45.7582L48.8951 26.0714L50.8577 32.3619C51.059 33.0496 51.2268 33.4354 52.3674 33.4354H55.303C56.4052 33.4354 56.5736 33.0691 56.9715 32.2035C57.0035 32.1337 57.0371 32.0607 57.0727 31.9844L61.6942 21.0977H58.1547V21.106Z" fill="white"/>
<path d="M118.317 21.106L113.553 26.4319L112.236 21.106H107.346L109.653 29.6527L108.042 33.4354H113.024L114.643 29.6527L122.636 21.106H118.317Z" fill="white"/>
<path d="M93.0711 24.1757C93.9183 22.1879 95.4531 21.106 97.7932 21.106L97.8016 21.1143H106.231L105.09 23.8067H100.117C98.4558 23.7815 98.1371 24.1254 97.6003 25.4003C97.0635 26.6752 96.4764 28.0675 95.9899 29.2165C95.5873 30.1727 96.0319 30.7682 96.879 30.7682H99.2862C100.066 30.7514 100.41 30.5333 100.746 29.8204L101.333 28.5036H99.0513L100.192 25.828H106.214L103.731 31.6572C103.32 32.6386 102.415 33.4437 100.997 33.4437H94.8325C92.0143 33.4521 89.8588 31.6237 91.2679 28.3778C91.9221 26.8681 92.3163 25.9455 93.0711 24.1757Z" fill="white"/>
<path d="M66.6845 21.106C66.0051 21.106 64.445 21.106 63.7489 22.6744L60.0752 31.2714C59.4714 32.5379 60.4527 33.4354 61.7863 33.4354H70.4672L71.5994 30.7598H66.2148C65.9967 30.7598 65.9044 30.6843 65.8625 30.6172C65.7786 30.4914 65.829 30.3404 65.8625 30.2733L66.6174 28.5036H72.5724L73.7047 25.8364H67.7413L68.4458 24.2093C68.4877 24.1086 68.6136 23.8151 69.2342 23.8151H74.577L75.726 21.106H66.6845Z" fill="white"/>
<path d="M73.168 33.4354L78.4017 21.1144H85.4051C89.2046 21.1144 90.5801 22.3389 90.664 23.9996C90.8184 26.9628 87.5564 28.3661 86.2917 28.9102C86.1138 28.9867 85.9754 29.0463 85.8916 29.0907L90.0349 37H89.1626L80.8592 28.5959C80.8592 28.5959 86.4955 26.2139 85.8161 24.3435C85.707 24.0416 85.2961 23.7816 84.5244 23.8235H82.6289L78.5359 33.4354H73.168Z" fill="white"/>
<path d="M21.6948 25.2493L23.4226 21.106H27.2556L25.4859 25.2493H21.6948Z" fill="white"/>
<path d="M54.8836 18.5982L56.4101 15.0084H55.7475L53.1726 17.1807L52.4009 15.0084H51.7216L50.1951 18.5982H50.8744L51.8138 16.3756L51.9564 15.9897C51.9564 16.0904 51.9564 16.191 52.0151 16.3588L52.6022 18.1621H52.77L54.8836 16.3672C54.9339 16.3252 55.1101 16.1659 55.2526 15.9897C55.1352 16.1994 55.0849 16.3168 55.0597 16.3756L54.1203 18.5982H54.8836Z" fill="white"/>
<path fill-rule="evenodd" clip-rule="evenodd" d="M57.7353 15.8555L57.7419 15.8407C57.8115 15.6835 57.9534 15.3632 58.2134 15.1846C58.4566 15.0168 58.7501 15.0084 58.985 15.0084H61.627C61.8535 15.0084 62.147 15.0084 62.2477 15.1846C62.3651 15.3691 62.2225 15.7046 62.1554 15.8555L61.3502 17.7511L61.3436 17.7659C61.274 17.9231 61.1321 18.2434 60.8721 18.4221C60.6289 18.5898 60.3354 18.5982 60.1005 18.5982H57.4585C57.232 18.5982 56.9385 18.5982 56.8378 18.4221C56.7204 18.2376 56.863 17.9021 56.9301 17.7511L57.7353 15.8555ZM60.436 17.944L61.4005 15.6626H58.6495L57.685 17.944H60.436Z" fill="white"/>
<path d="M63.2793 18.5982H64.118L65.3594 15.6626H67.0117L67.2885 15.0084H63.1535L62.8767 15.6626H64.529L63.2793 18.5982Z" fill="white"/>
<path fill-rule="evenodd" clip-rule="evenodd" d="M67.884 15.8555L67.8905 15.8407C67.9602 15.6835 68.1021 15.3633 68.362 15.1846C68.6053 15.0168 68.8988 15.0084 69.1337 15.0084H71.7757C72.0021 15.0084 72.2957 15.0084 72.3963 15.1846C72.5138 15.3691 72.3712 15.7046 72.3041 15.8555L71.4989 17.7511L71.4923 17.7659C71.4227 17.9231 71.2807 18.2434 71.0208 18.4221C70.7776 18.5898 70.484 18.5982 70.2492 18.5982H67.6072C67.3807 18.5982 67.0872 18.5982 66.9865 18.4221C66.8691 18.2376 67.0117 17.9021 67.0788 17.7511L67.884 15.8555ZM70.5847 17.944L71.5492 15.6626H68.7982L67.8336 17.944H70.5847Z" fill="white"/>
<path fill-rule="evenodd" clip-rule="evenodd" d="M78.0408 15.1594C77.9401 15.0336 77.7137 15.0084 77.5375 15.0084H74.4342L72.9077 18.5982H73.7465L74.3419 17.1975H76.5814C76.6736 17.1975 77.0175 17.1891 77.2691 17.0298C77.5208 16.8704 77.6466 16.5936 77.6801 16.5014L78.0156 15.7046C78.0911 15.5368 78.1666 15.3104 78.0408 15.1594ZM74.602 16.5852L75.0129 15.6207H76.8414C76.9756 15.6207 77.0594 15.6375 77.1014 15.6794C77.1685 15.7465 77.1265 15.8472 77.1014 15.9059L76.9336 16.3001C76.9169 16.3504 76.8665 16.4594 76.7491 16.5265C76.6736 16.5685 76.5814 16.5852 76.4388 16.5852H74.602Z" fill="white"/>
<path d="M79.8527 16.4007H82.4696L83.0567 15.0084H83.8954L82.3689 18.5982H81.5302L82.1928 17.0549H79.576L78.9217 18.5982H78.083L79.6095 15.0084H80.4398L79.8527 16.4007Z" fill="white"/>
<path fill-rule="evenodd" clip-rule="evenodd" d="M85.3027 15.8407L85.2961 15.8555L84.4909 17.7511C84.4238 17.9021 84.2812 18.2376 84.3986 18.4221C84.4993 18.5982 84.7928 18.5982 85.0193 18.5982H87.6613C87.8961 18.5982 88.1897 18.5898 88.4329 18.4221C88.6928 18.2434 88.8348 17.9231 88.9044 17.7659L88.911 17.7511L89.7162 15.8555C89.7833 15.7046 89.9259 15.3691 89.8085 15.1846C89.7078 15.0084 89.4143 15.0084 89.1878 15.0084H86.5458C86.3109 15.0084 86.0174 15.0168 85.7741 15.1846C85.5142 15.3633 85.3723 15.6835 85.3027 15.8407ZM88.9613 15.6626L87.9968 17.944H85.2457L86.2103 15.6626H88.9613Z" fill="white"/>
<path d="M95.5201 15.0084L95.2601 15.6207H92.4252L92.0897 16.4259H93.742L93.482 17.0382H91.8297L91.4355 17.944H94.3124L94.0356 18.5982H90.3284L91.8549 15.0084H95.5201Z" fill="white"/>
<path d="M101.895 18.5982L103.421 15.0084H102.758L100.184 17.1807L99.4119 15.0084H98.7326L97.2061 18.5982H97.8854L98.8248 16.3756L98.9674 15.9897C98.9674 16.0904 98.9674 16.191 99.0261 16.3588L99.6132 18.1621H99.781L101.895 16.3672C101.945 16.3252 102.121 16.1659 102.264 15.9897C102.146 16.1993 102.096 16.3167 102.071 16.3755L101.131 18.5982H101.895Z" fill="white"/>
<path fill-rule="evenodd" clip-rule="evenodd" d="M107.338 15.0084L107.875 18.5982H106.935L106.843 17.8182H104.562L103.824 18.5982H102.985L106.541 15.0084H107.338ZM106.768 17.164L106.608 15.7046L105.182 17.164H106.768Z" fill="white"/>
<path d="M109.93 17.944L110.894 15.6626H113.15L112.865 16.342L113.754 16.2078L113.905 15.8555L113.907 15.8523C113.974 15.6917 114.114 15.3594 113.998 15.1761C113.897 15 113.603 15 113.377 15H111.238C111.012 15 110.71 15.0084 110.467 15.1761C110.207 15.3628 110.065 15.6829 109.995 15.8402L109.988 15.8555L109.183 17.751C109.116 17.902 108.974 18.2375 109.091 18.422C109.192 18.5982 109.485 18.5982 109.712 18.5982H111.85C112.085 18.5982 112.379 18.5898 112.622 18.422C112.882 18.2433 113.024 17.923 113.094 17.7659L113.1 17.751L113.276 17.3401L112.513 17.1639L112.178 17.944H109.93Z" fill="white"/>
<path d="M117.864 15.0084L118.309 18.5982H117.336L117.109 15.7717L114.45 18.5982H113.586L117.05 15.0084H117.864Z" fill="white"/>
<path fill-rule="evenodd" clip-rule="evenodd" d="M120.571 15.8407L120.565 15.8555L119.759 17.7511C119.692 17.9021 119.55 18.2376 119.667 18.4221C119.768 18.5982 120.061 18.5982 120.288 18.5982H122.93C123.165 18.5982 123.458 18.5898 123.701 18.4221C123.961 18.2434 124.103 17.9231 124.173 17.7659L124.18 17.7511L124.985 15.8555C125.052 15.7046 125.194 15.3691 125.077 15.1846C124.976 15.0084 124.683 15.0084 124.456 15.0084H121.814C121.588 15.0084 121.286 15.0168 121.043 15.1846C120.783 15.3632 120.641 15.6835 120.571 15.8407ZM124.23 15.6626L123.265 17.944H120.514L121.479 15.6626H124.23Z" fill="white"/>
</svg>
