<svg width="103" height="37" viewBox="0 0 103 37" fill="none" xmlns="http://www.w3.org/2000/svg">
<path fill-rule="evenodd" clip-rule="evenodd" d="M18.2361 5.96116C17.6209 3.25119 16.1769 0.990098 15.6862 0.221617C15.6224 0.121801 15.5748 0.047166 15.5471 0C15.1605 0.576449 13.7669 2.77374 13.0548 5.21177C12.2783 7.93126 12.1664 10.3422 12.4309 12.7192C12.6988 15.0962 13.6991 17.5376 13.6991 17.5376C14.2348 18.8194 15.0385 20.1859 15.5539 20.8607C16.3236 19.8705 18.0767 16.9137 18.6226 13.0515C18.9244 10.9017 18.9414 9.02651 18.2395 5.96116H18.2361ZM18.0326 11.1594C18.0055 12.3258 17.8665 13.5601 17.6901 14.2993C17.7546 13.0311 17.602 11.2408 17.307 9.83693C17.0154 8.43989 16.188 6.10358 15.5268 5.02528C14.9198 6.05271 14.167 8.07706 13.7737 9.82336C13.3871 11.5764 13.3668 13.6991 13.3668 14.3332C13.2617 13.8009 12.9972 11.8918 13.0718 9.96578C13.1328 8.38224 13.5024 6.75123 13.7093 6.00524C14.4824 3.49938 15.364 1.90228 15.5234 1.64797C15.6929 1.90228 16.795 3.86899 17.3714 5.93742C17.9411 8.01264 18.053 9.9963 18.0292 11.1594H18.0326ZM14.6146 16.3169C14.6688 18.2211 15.1971 19.4482 15.5463 20.0962C15.8994 19.4362 16.5066 17.9942 16.4525 16.1541C16.3813 14.2756 15.7438 12.9023 15.5505 12.57C15.3369 12.9023 14.6011 14.4756 14.6146 16.3169Z" fill="white"/>
<path d="M11.4103 21.5761V25.1467C11.4103 25.1467 11.4171 25.1365 11.4205 25.1297C12.6785 23.8785 14.7096 23.8785 15.9642 25.1297C17.2155 26.3877 17.2155 28.4155 15.9642 29.6701C15.9575 29.6701 15.9473 29.6769 15.9439 29.6871C15.9439 29.6871 15.9303 29.6972 15.9235 29.704C14.6791 30.9451 13.0481 31.5588 11.4137 31.5588C9.77928 31.5588 8.13132 30.9349 6.88008 29.6871C4.67602 27.4796 4.41492 24.0684 6.09679 21.5795C6.32059 21.2438 6.58508 20.9183 6.88008 20.6233C8.13132 19.3754 9.7725 18.7515 11.4137 18.7515V10.1692C5.11005 10.1692 0 15.2792 0 21.5761C0 27.8729 5.11005 32.9864 11.4137 32.9864C14.6994 32.9864 17.6563 31.5995 19.7451 29.3751V21.5761H11.4103Z" fill="white"/>
<path d="M25.5536 21.5829H21.1963V32.9966H23.4783V22.9969H25.5536V21.5829Z" fill="white"/>
<path fill-rule="evenodd" clip-rule="evenodd" d="M27.8391 32.9965L28.0527 29.9651H29.131L29.3446 32.9965H31.5792L30.3856 21.5795H26.7913L25.6011 32.9965H27.8391ZM28.1341 28.7071L28.524 22.9969H28.6529L29.0496 28.7071H28.1341Z" fill="white"/>
<path d="M34.8446 31.1519V29.0021H32.5659V30.9654C32.5659 31.7589 32.6575 32.9966 34.2614 32.9966H36.1535C37.754 32.9966 37.8489 31.7589 37.8489 30.9654V28.6596C37.8489 28.2527 37.8319 27.0761 36.2993 27.11V26.9981C36.9842 27.0252 37.8489 26.6862 37.8489 25.4485V23.6242C37.8489 22.8206 37.754 21.5829 36.1535 21.5829H34.2614C32.6609 21.5829 32.5659 22.8239 32.5659 23.6242V25.2382H34.848V23.3767C34.848 23.085 35.0786 23.0003 35.2074 23.0003C35.421 23.0003 35.5702 23.1766 35.5702 23.3767V25.6452C35.5702 26.3437 35.3397 26.4963 34.6852 26.4963H33.7222V27.7475H34.6547C35.499 27.7475 35.5668 28.1408 35.5668 28.4969V31.1519C35.5668 31.3486 35.4176 31.5283 35.204 31.5283C35.0752 31.5283 34.8446 31.4469 34.8446 31.1519Z" fill="white"/>
<path d="M39.2527 21.5829H44.5391V32.9966H42.2536V22.9969H41.5415L41.5347 32.9966H39.2527V21.5829Z" fill="white"/>
<path fill-rule="evenodd" clip-rule="evenodd" d="M48.2218 32.9965H45.9397V21.5795H49.5272C51.1277 21.5795 51.2261 22.8205 51.2261 23.6208V27.0761C51.2261 27.8729 51.1277 29.114 49.5272 29.114H48.2218V32.9965ZM48.2218 22.9969V27.8594H48.5168C48.7643 27.8594 48.9372 27.6457 48.9372 27.2897V23.5665C48.9372 23.2037 48.7643 22.9969 48.5168 22.9969H48.2218Z" fill="white"/>
<path fill-rule="evenodd" clip-rule="evenodd" d="M52.3281 30.9654C52.3281 31.7623 52.4231 33 54.0236 33H55.9157C57.5128 33 57.6145 31.7623 57.6145 30.9654V23.6242C57.6145 22.8239 57.5128 21.5829 55.9157 21.5829H54.0236C52.4231 21.5829 52.3281 22.8206 52.3281 23.6242V30.9654ZM55.3324 31.1553C55.3324 31.352 55.1832 31.5317 54.9696 31.5317C54.8442 31.5317 54.617 31.4469 54.617 31.1553V23.3767C54.617 23.0817 54.8442 23.0003 54.9696 23.0003C55.1832 23.0003 55.3324 23.1766 55.3324 23.3767V31.1553Z" fill="white"/>
<path d="M67.8243 21.5829H64.8573L63.3687 29.6057L61.8801 21.5829H58.9165V32.9966H61.1986V25.8384H61.2867L62.4566 32.9966H64.2843L65.4609 25.8384H65.5389V32.9966H67.8243V21.5829Z" fill="white"/>
<path d="M69.8452 21.5728H72.1307V26.3742H72.8461V21.5728H75.135V32.9966H72.8461V27.6322H72.1307V32.9966H69.8452V21.5728Z" fill="white"/>
<path d="M81.1063 21.5728H76.4709V32.9966H81.2012V31.742H78.7564V27.6322H80.9062V26.3742H78.7564V22.8342H81.1063V21.5728Z" fill="white"/>
<path fill-rule="evenodd" clip-rule="evenodd" d="M84.9718 32.2201H83.6664C82.0625 32.2201 81.9675 30.979 81.9675 30.1788V24.3567C81.9675 23.5564 82.0625 22.3154 83.6664 22.3154H84.9718V21.5728H87.2505V22.3154H88.556C90.1599 22.3154 90.2582 23.5564 90.2582 24.3567V30.1788C90.2582 30.9756 90.1599 32.2201 88.556 32.2201H87.2505V33H84.9718V32.2201ZM87.576 30.9655C87.8202 30.9655 88.0033 30.7519 88.0033 30.3924V24.143C88.0033 23.7836 87.8202 23.5734 87.576 23.5734H87.2505V30.9655H87.576ZM84.9718 23.5734H84.6463C84.2191 23.5734 84.2191 24.0311 84.2191 24.143V30.3924C84.2191 30.5077 84.2191 30.9655 84.6463 30.9655H84.9718V23.5734Z" fill="white"/>
<path d="M90.7366 22.8342H92.1031V32.9966H94.3919V22.8342H95.7618V21.5728H90.7366V22.8342Z" fill="white"/>
<path fill-rule="evenodd" clip-rule="evenodd" d="M96.8162 21.5728H99.105V25.8012H100.41C102.004 25.8012 102.109 27.0388 102.109 27.8425V30.9587C102.109 31.7589 102.004 32.9966 100.41 32.9966H96.8162V21.5728ZM99.3932 31.742C99.6374 31.742 99.8171 31.5318 99.8171 31.1723V27.6322C99.8171 27.2728 99.6408 27.0558 99.3932 27.0558H99.105V31.742H99.3932Z" fill="white"/>
<path d="M59.4828 17.3646C59.8626 17.7444 60.3577 17.9512 60.9273 17.9512V17.9478C61.9208 17.9478 62.7008 17.3544 62.8872 16.2592H62.0463C61.9141 16.8153 61.5377 17.2018 60.9273 17.2018C60.6018 17.2018 60.3102 17.0797 60.1169 16.8695C59.8456 16.5779 59.7846 16.2592 59.7846 15.1571C59.7846 14.0551 59.8456 13.7397 60.1169 13.4447C60.3102 13.2345 60.6018 13.1124 60.9273 13.1124C61.5377 13.1124 61.9073 13.499 62.0395 14.0551H62.8872C62.694 12.9598 61.9378 12.363 60.9273 12.363C60.3543 12.363 59.8592 12.5733 59.4828 12.9497C58.9503 13.4822 58.9504 14.0841 58.9504 15.1182V15.1961C58.9504 16.2301 58.9503 16.8321 59.4828 17.3646Z" fill="white"/>
<path d="M65.0234 17.9039V12.4106H68.5432V13.1566H65.8576V14.7639H68.1396V15.5031H65.8576V17.1579H68.5432V17.9039H65.0234Z" fill="white"/>
<path d="M72.5647 17.9039V13.1566H74.0771V12.4106H70.2183V13.1566H71.7306V17.9039H72.5647Z" fill="white"/>
<path fill-rule="evenodd" clip-rule="evenodd" d="M78.1563 17.9073H76.0505V12.4106H76.8847V14.5706H78.1563C79.2041 14.5706 79.8992 15.2488 79.8992 16.2389C79.8992 17.2291 79.1973 17.9073 78.1563 17.9073ZM78.0884 15.32H76.8847V17.1579H78.0884C78.6988 17.1579 79.0616 16.812 79.0616 16.2389C79.0616 15.6659 78.6988 15.32 78.0884 15.32Z" fill="white"/>
<path fill-rule="evenodd" clip-rule="evenodd" d="M86.3454 16.7984L86.7319 17.9038H87.6034L85.596 12.4072H84.9246L82.9104 17.9038H83.7886L84.1752 16.7984H86.3454ZM84.4159 16.0897L85.2806 13.6517L86.1216 16.0897H84.4159Z" fill="white"/>
<path d="M89.2783 16.2763H90.1091C90.2413 16.8324 90.6279 17.2189 91.2281 17.2189C91.8282 17.2189 92.269 16.8697 92.269 16.3237C92.269 15.7778 91.93 15.4455 91.2959 15.4455H90.594V14.7504H91.3128C91.8689 14.7504 92.1843 14.4418 92.1843 13.9094C92.1843 13.3771 91.8147 13.0922 91.2348 13.0922C90.655 13.0922 90.2549 13.4856 90.1226 14.0417H89.2817C89.4682 12.96 90.2379 12.3666 91.2416 12.3666C92.2453 12.3666 93.0252 12.9464 93.0252 13.8552C93.0252 14.4181 92.7472 14.8351 92.269 15.0691C92.8014 15.2861 93.11 15.7168 93.11 16.3576C93.11 17.3308 92.2996 17.9547 91.2111 17.9547C90.2311 17.9547 89.458 17.3613 89.2749 16.2796L89.2783 16.2763Z" fill="white"/>
<path d="M95.7074 17.3646C96.0838 17.7444 96.5789 17.9512 97.1485 17.9512V17.9478C98.1421 17.9478 98.922 17.3544 99.1085 16.2592H98.2675C98.1387 16.8153 97.7589 17.2018 97.1485 17.2018C96.823 17.2018 96.5314 17.0797 96.3381 16.8695C96.0668 16.5779 96.0058 16.2592 96.0058 15.1571C96.0058 14.0551 96.0668 13.7397 96.3381 13.4447C96.5314 13.2345 96.823 13.1124 97.1485 13.1124C97.7589 13.1124 98.1285 13.499 98.2607 14.0551H99.1085C98.9152 12.9598 98.159 12.363 97.1485 12.363C96.5789 12.363 96.0838 12.5733 95.7074 12.9497C95.1749 13.4822 95.175 14.0841 95.1751 15.1182V15.1961C95.175 16.2301 95.1749 16.8321 95.7074 17.3646Z" fill="white"/>
</svg>
