<svg width="195" height="95" viewBox="0 0 195 95" fill="none" xmlns="http://www.w3.org/2000/svg">
<path d="M7.15248 60.5577L16.3501 41.9492V38.4423H1V42.5179H11.2852L2.39829 60.5577H7.15248Z" fill="white"/>
<path d="M27.6391 53.7967V49.7843H18.0375V53.7967H27.6391Z" fill="white"/>
<path d="M40.223 60.5577V38.4423H36.3389L31.2429 41.2225V45.6772L35.8417 43.3077V60.5577H40.223Z" fill="white"/>
<path d="M53.1074 61C55.3758 61 57.2402 60.2734 58.7317 58.8201C60.2542 57.3668 61 55.5027 61 53.1964C61 51.0165 60.3475 49.3104 59.0113 48.0151C57.6752 46.7198 56.0283 46.0563 54.0396 46.0563C51.8024 46.0563 50.1244 46.7514 48.9747 48.1099C49.099 46.3723 49.6583 44.9505 50.6837 43.8132C51.7091 42.6758 53.1385 42.1071 54.9097 42.1071C56.4944 42.1071 57.9548 42.581 59.322 43.5288V39.4217C57.9238 38.4739 56.2769 38 54.4125 38C47.6696 38 44.438 44.0975 44.438 50.6374C44.438 57.0824 47.6386 61 53.1074 61ZM52.8278 57.0824C50.4662 57.0824 48.9747 55.3764 48.8504 52.375C49.4719 50.7637 51.1187 49.5948 52.8278 49.5948C54.9718 49.5948 56.5565 51.1429 56.5565 53.2912C56.5565 55.5343 55.034 57.0824 52.8278 57.0824Z" fill="white"/>
<path fill-rule="evenodd" clip-rule="evenodd" d="M61 71H1V70H61V71Z" fill="white"/>
<path d="M2.11021 94.7845L9.9533 84.4061V94.7845H11.2605V82.2155H10.0966L2.30718 92.558V82.2155H1V94.7845H2.11021Z" fill="white"/>
<path d="M26.3295 95C28.0127 95 29.4094 94.3715 30.5196 93.1326C31.6477 91.8936 32.2028 90.3494 32.2028 88.5C32.2028 86.6506 31.6477 85.1064 30.5196 83.8674C29.4094 82.6285 28.0127 82 26.3295 82C24.7716 82 23.4465 82.5387 22.3542 83.634C21.2619 84.7293 20.6352 86.0939 20.474 87.7638H17.8954V82.2155H16.5704V94.7845H17.8954V88.9669H20.4561C20.5635 90.7086 21.1724 92.145 22.2647 93.2942C23.357 94.4254 24.7179 95 26.3295 95ZM23.0884 92.3066C22.2109 91.337 21.7812 90.0622 21.7812 88.5C21.7812 86.9378 22.2109 85.663 23.0884 84.6934C23.9658 83.7238 25.0402 83.239 26.3295 83.239C27.6187 83.239 28.6931 83.7238 29.5526 84.6934C30.4301 85.663 30.8598 86.9378 30.8598 88.5C30.8598 90.0622 30.4301 91.337 29.5526 92.3066C28.6931 93.2762 27.6187 93.761 26.3295 93.761C25.0402 93.761 23.9658 93.2762 23.0884 92.3066Z" fill="white"/>
<path d="M34.99 94.7845C35.0795 94.8025 35.2585 94.8025 35.4913 94.8025C37.3715 94.7307 38.3564 93.7431 38.8578 91.6064C39.2159 90.116 39.3233 88.6077 39.395 86.2914L39.4845 83.4185H44.7132V94.7845H46.0383V82.2155H38.1952L38.1236 85.645C38.1057 86.489 38.0878 87.2251 38.052 87.8356C38.0162 88.4461 37.9624 89.0746 37.8908 89.7389C37.8371 90.3854 37.7297 90.924 37.6043 91.355C37.2283 92.7196 36.6374 93.5994 35.4913 93.5994C35.2585 93.5994 35.0795 93.5815 34.99 93.5635V94.7845Z" fill="white"/>
<path d="M51.8855 94.7845L55.8429 89.1285H59.6749V94.7845H61V82.2155H55.3773C52.9241 82.2155 51.4379 83.5622 51.4379 85.6271C51.4379 87.4047 52.5123 88.6975 54.3925 89.0028L50.3456 94.7845H51.8855ZM55.4669 87.9254C53.7478 87.9254 52.7451 87.1174 52.7451 85.6809C52.7451 84.2445 53.7478 83.4185 55.4669 83.4185H59.6749V87.9254H55.4669Z" fill="white"/>
<path d="M112.909 38C97.9306 38 91.3837 42.9 87.9119 50.4L80.4723 68C70.5528 89.7 84.0433 95 93.9628 95H126.003L142.072 56.8H124.118L105.965 69.6H119.654L113.504 84.1H96.7403C96.7403 84.1 90.6894 84.1 93.566 77.5L103.486 53.9C104.172 52.2208 105.391 50.8188 106.953 49.9139C108.515 49.009 110.331 48.6524 112.116 48.9H135.426L151 38H112.909Z" fill="#E9530E"/>
<path d="M14.4506 0H24.3506L10.3506 24H0.450562L14.4506 0Z" fill="#E9530E"/>
<path d="M33.3506 0H43.2506L29.2506 24H19.3506L33.3506 0Z" fill="#E9530E"/>
<path d="M52.2505 0H62.1505L48.1505 24H38.2505L52.2505 0Z" fill="#E9530E"/>
<path d="M71.1506 0H81.0506L67.0506 24H57.1506L71.1506 0Z" fill="#E9530E"/>
<path d="M90.0505 0H99.9505L85.9505 24H76.0505L90.0505 0Z" fill="#E9530E"/>
<path d="M108.951 0H118.851L104.851 24H94.9506L108.951 0Z" fill="#E9530E"/>
<path d="M127.851 0H137.751L123.751 24H113.851L127.851 0Z" fill="#E9530E"/>
<path d="M146.751 0H156.651L142.651 24H132.751L146.751 0Z" fill="#E9530E"/>
<path d="M165.651 0H175.551L161.551 24H151.651L165.651 0Z" fill="#E9530E"/>
<path d="M184.551 0H194.451L180.451 24H170.551L184.551 0Z" fill="#E9530E"/>
<path d="M203.45 0H213.35L199.35 24H189.451L203.45 0Z" fill="#E9530E"/>
</svg>
