<svg width="60" height="60" viewBox="0 0 60 60" fill="none" xmlns="http://www.w3.org/2000/svg">
<path d="M0 24C0 15.5992 0 11.3988 1.6349 8.19014C3.073 5.36771 5.36771 3.073 8.19014 1.6349C11.3988 0 15.5992 0 24 0H36C44.4008 0 48.6012 0 51.8099 1.6349C54.6323 3.073 56.927 5.36771 58.3651 8.19014C60 11.3988 60 15.5992 60 24V36C60 44.4008 60 48.6012 58.3651 51.8099C56.927 54.6323 54.6323 56.927 51.8099 58.3651C48.6012 60 44.4008 60 36 60H24C15.5992 60 11.3988 60 8.19014 58.3651C5.36771 56.927 3.073 54.6323 1.6349 51.8099C0 48.6012 0 44.4008 0 36V24Z" fill="black"/>
<path d="M30 15C21.714 15 15 21.714 15 30C15 38.286 21.714 45 30 45C38.286 45 45 38.286 45 30C45 21.714 38.286 15 30 15ZM30 43.146C22.74 43.146 16.854 37.26 16.854 30C16.854 22.74 22.74 16.854 30 16.854C37.26 16.854 43.146 22.74 43.146 30C43.146 37.26 37.26 43.146 30 43.146V43.146Z" fill="#E85410"/>
<path d="M32.868 22.194C32.61 22.098 32.328 22.23 32.238 22.488L30.216 28.044C29.304 27.948 28.41 28.476 28.086 29.376C27.756 30.276 28.104 31.254 28.86 31.764L28.254 33.426C28.158 33.684 28.29 33.966 28.548 34.056C28.602 34.074 28.662 34.086 28.716 34.086C28.92 34.086 29.106 33.96 29.178 33.762L29.784 32.1C30.696 32.196 31.59 31.668 31.914 30.768C32.244 29.868 31.896 28.89 31.14 28.38L33.162 22.824C33.258 22.566 33.126 22.284 32.868 22.194V22.194Z" fill="#E85410"/>
<path d="M38.526 21.54C36.252 19.266 33.222 18.012 30 18.012C26.778 18.012 23.748 19.266 21.474 21.54C19.2 23.814 17.946 26.844 17.946 30.066C17.946 31.338 18.144 32.592 18.534 33.792C18.636 34.11 18.972 34.278 19.29 34.176L21.084 33.594C21.234 33.546 21.318 33.378 21.264 33.228C21.192 33.036 21.132 32.838 21.072 32.64C21.03 32.484 20.868 32.4 20.712 32.448L19.5 32.844C19.26 31.938 19.14 31.008 19.14 30.06C19.14 29.88 19.14 29.7 19.152 29.526L20.418 29.658C20.574 29.676 20.718 29.556 20.73 29.4C20.742 29.196 20.766 28.986 20.796 28.788C20.82 28.632 20.706 28.488 20.544 28.47L19.278 28.338C19.458 27.216 19.812 26.148 20.31 25.17L21.408 25.806C21.546 25.884 21.72 25.836 21.798 25.692C21.894 25.512 21.996 25.332 22.11 25.158C22.194 25.02 22.152 24.846 22.014 24.768L20.916 24.132C21.528 23.196 22.284 22.362 23.148 21.654L23.892 22.68C23.988 22.806 24.168 22.836 24.294 22.734C24.456 22.608 24.624 22.488 24.792 22.368C24.924 22.278 24.954 22.098 24.864 21.972L24.12 20.946C25.05 20.346 26.07 19.884 27.162 19.584L27.426 20.826C27.456 20.982 27.612 21.078 27.768 21.042C27.966 20.994 28.17 20.952 28.374 20.916C28.53 20.886 28.632 20.736 28.602 20.58L28.338 19.338C28.884 19.254 29.436 19.212 30.006 19.212C30.576 19.212 31.128 19.254 31.674 19.338L31.41 20.58C31.374 20.736 31.482 20.886 31.638 20.916C31.842 20.952 32.046 20.994 32.244 21.042C32.4 21.078 32.556 20.982 32.586 20.826L32.85 19.584C33.942 19.878 34.968 20.346 35.892 20.946L35.148 21.972C35.052 22.098 35.088 22.284 35.22 22.368C35.388 22.482 35.556 22.608 35.718 22.734C35.844 22.83 36.024 22.806 36.12 22.68L36.864 21.654C37.728 22.362 38.484 23.196 39.096 24.132L37.998 24.768C37.86 24.846 37.818 25.026 37.902 25.158C38.01 25.332 38.112 25.512 38.214 25.692C38.292 25.83 38.466 25.884 38.604 25.806L39.702 25.17C40.2 26.154 40.554 27.216 40.734 28.338L39.468 28.47C39.312 28.488 39.198 28.632 39.216 28.788C39.246 28.992 39.264 29.196 39.282 29.4C39.294 29.562 39.432 29.676 39.594 29.658L40.86 29.526C40.866 29.706 40.872 29.88 40.872 30.06C40.872 31.008 40.752 31.938 40.512 32.844L39.3 32.448C39.15 32.4 38.988 32.484 38.94 32.64C38.88 32.838 38.82 33.036 38.748 33.228C38.694 33.378 38.772 33.54 38.928 33.594L40.722 34.176C40.782 34.2 40.848 34.206 40.908 34.206C41.16 34.206 41.394 34.044 41.478 33.792C41.868 32.592 42.066 31.338 42.066 30.066C42.066 26.844 40.812 23.814 38.538 21.54H38.526Z" fill="#E85410"/>
<path d="M33.756 35.922H26.244C26.022 35.922 25.836 36.102 25.836 36.33V38.052C25.836 38.274 26.016 38.46 26.244 38.46H33.756C33.978 38.46 34.164 38.28 34.164 38.052V36.33C34.164 36.108 33.984 35.922 33.756 35.922ZM27.594 37.032C27.594 37.092 27.522 37.14 27.438 37.14H26.802C26.712 37.14 26.646 37.092 26.646 37.032V36.444C26.646 36.384 26.718 36.336 26.802 36.336H27.438C27.528 36.336 27.594 36.384 27.594 36.444V37.032ZM29.034 37.032C29.034 37.092 28.962 37.14 28.878 37.14H28.242C28.152 37.14 28.086 37.092 28.086 37.032V36.444C28.086 36.384 28.158 36.336 28.242 36.336H28.878C28.968 36.336 29.034 36.384 29.034 36.444V37.032ZM30.474 37.032C30.474 37.092 30.402 37.14 30.318 37.14H29.682C29.592 37.14 29.526 37.092 29.526 37.032V36.444C29.526 36.384 29.598 36.336 29.682 36.336H30.318C30.408 36.336 30.474 36.384 30.474 36.444V37.032ZM31.914 37.032C31.914 37.092 31.842 37.14 31.758 37.14H31.122C31.032 37.14 30.966 37.092 30.966 37.032V36.444C30.966 36.384 31.038 36.336 31.122 36.336H31.758C31.848 36.336 31.914 36.384 31.914 36.444V37.032ZM33.354 37.032C33.354 37.092 33.282 37.14 33.198 37.14H32.562C32.472 37.14 32.406 37.092 32.406 37.032V36.444C32.406 36.384 32.478 36.336 32.562 36.336H33.198C33.288 36.336 33.354 36.384 33.354 36.444V37.032Z" fill="#E9530E"/>
</svg>
