<svg width="60" height="60" viewBox="0 0 60 60" fill="none" xmlns="http://www.w3.org/2000/svg">
<path d="M0 24C0 15.5992 0 11.3988 1.6349 8.19014C3.073 5.36771 5.36771 3.073 8.19014 1.6349C11.3988 0 15.5992 0 24 0H36C44.4008 0 48.6012 0 51.8099 1.6349C54.6323 3.073 56.927 5.36771 58.3651 8.19014C60 11.3988 60 15.5992 60 24V36C60 44.4008 60 48.6012 58.3651 51.8099C56.927 54.6323 54.6323 56.927 51.8099 58.3651C48.6012 60 44.4008 60 36 60H24C15.5992 60 11.3988 60 8.19014 58.3651C5.36771 56.927 3.073 54.6323 1.6349 51.8099C0 48.6012 0 44.4008 0 36V24Z" fill="black"/>
<path d="M38.6701 21.408C39.2041 21.942 40.0741 21.942 40.6141 21.408C41.3521 20.67 41.3521 19.482 40.6141 18.744L38.4841 16.614C37.7461 15.876 36.5581 15.876 35.8201 16.614C35.2861 17.148 35.2861 18.018 35.8201 18.558L38.6701 21.408Z" fill="#E9530E"/>
<path d="M41.28 25.062L32.586 16.368C31.71 15.492 30.522 15 29.28 15H24.186C20.772 15 18 17.772 18 21.186V38.814C18 42.228 20.772 45 24.186 45H36.462C39.876 45 42.648 42.228 42.648 38.814V28.368C42.648 27.126 42.156 25.938 41.28 25.062V25.062ZM20.352 20.088C20.376 18.384 21.756 17.016 23.46 17.016H28.2C29.694 17.016 31.116 17.652 32.112 18.762L33.192 19.968C33.684 20.514 33.294 21.39 32.556 21.39H21.636C20.922 21.39 20.34 20.808 20.352 20.088V20.088ZM37.056 39.258C37.476 39.678 37.476 40.356 37.056 40.776C36.846 40.986 36.57 41.088 36.294 41.088C36.018 41.088 35.742 40.986 35.532 40.776L32.97 38.214H27.672L25.11 40.776C24.9 40.986 24.624 41.088 24.348 41.088C24.072 41.088 23.796 40.986 23.586 40.776C23.166 40.356 23.166 39.678 23.586 39.258L26.148 36.696V31.398L23.586 28.836C23.166 28.416 23.166 27.738 23.586 27.318C24.006 26.898 24.684 26.898 25.104 27.318L27.666 29.88H32.964L35.526 27.318C35.946 26.898 36.624 26.898 37.044 27.318C37.464 27.738 37.464 28.416 37.044 28.836L34.482 31.398V36.696L37.044 39.258H37.056Z" fill="#E9530E"/>
<path d="M32.3459 32.028H28.3079V36.066H32.3459V32.028Z" fill="#E9530E"/>
</svg>
