<svg width="60" height="60" viewBox="0 0 60 60" fill="none" xmlns="http://www.w3.org/2000/svg">
<path d="M0 24C0 15.5992 0 11.3988 1.6349 8.19014C3.073 5.36771 5.36771 3.073 8.19014 1.6349C11.3988 0 15.5992 0 24 0H36C44.4008 0 48.6012 0 51.8099 1.6349C54.6323 3.073 56.927 5.36771 58.3651 8.19014C60 11.3988 60 15.5992 60 24V36C60 44.4008 60 48.6012 58.3651 51.8099C56.927 54.6323 54.6323 56.927 51.8099 58.3651C48.6012 60 44.4008 60 36 60H24C15.5992 60 11.3988 60 8.19014 58.3651C5.36771 56.927 3.073 54.6323 1.6349 51.8099C0 48.6012 0 44.4008 0 36V24Z" fill="black"/>
<path d="M41.1 17.37C41.076 17.01 40.914 16.65 40.596 16.464C40.29 16.284 39.894 16.26 39.582 16.446C39.444 16.53 39.33 16.65 39.21 16.758C39.162 16.8 39.114 16.842 39.066 16.884L39.024 16.92L38.97 16.962C38.766 17.106 38.556 17.238 38.328 17.34C38.31 17.346 38.28 17.364 38.256 17.37L38.106 17.424C37.986 17.466 37.866 17.496 37.746 17.532C37.632 17.562 37.518 17.58 37.404 17.598C37.404 17.598 37.392 17.598 37.374 17.598C37.308 17.604 37.236 17.61 37.164 17.616C36.924 17.634 36.69 17.628 36.456 17.61C36.402 17.61 36.342 17.598 36.288 17.598C36.276 17.598 36.222 17.592 36.18 17.586C36.18 17.586 36.078 17.568 36.054 17.568C35.988 17.556 35.922 17.544 35.856 17.538C35.28 17.43 34.722 17.268 34.17 17.082C34.158 17.082 34.146 17.076 34.128 17.07C34.11 17.064 34.098 17.052 34.08 17.046C31.692 16.23 29.352 15.024 26.766 15H26.718C25.368 15 23.994 15.186 22.722 15.672C21.9 15.99 21.132 16.404 20.424 16.926C20.352 16.98 20.286 17.028 20.214 17.082V16.026C20.214 15.42 19.704 15.876 19.104 15.876C18.504 15.876 18 15.42 18 16.026V43.896C18 44.502 18.498 45 19.104 45C19.71 45 20.214 44.508 20.214 43.902V33.222C20.49 33.348 20.808 33.366 21.114 33.18C21.336 33.048 21.54 32.886 21.756 32.754C22.008 32.598 22.272 32.448 22.542 32.316L22.764 32.208C22.794 32.19 22.83 32.178 22.866 32.16L22.932 32.13C23.016 32.094 22.902 32.142 22.878 32.154C23.058 32.094 23.232 32.016 23.406 31.95C23.796 31.818 24.198 31.71 24.6 31.632C24.708 31.608 24.822 31.59 24.936 31.572C24.996 31.56 25.056 31.554 25.11 31.548H25.152C25.152 31.548 25.164 31.542 25.194 31.536C25.446 31.506 25.698 31.482 25.95 31.47C26.22 31.452 26.49 31.446 26.754 31.446C27.06 31.446 27.366 31.47 27.672 31.506C27.714 31.512 27.75 31.518 27.786 31.524C27.864 31.536 27.936 31.548 28.02 31.566C28.17 31.59 28.326 31.626 28.476 31.656C29.082 31.788 29.676 31.974 30.264 32.172C31.404 32.568 32.514 33.042 33.654 33.438C33.684 33.45 33.708 33.468 33.738 33.48C34.782 33.834 35.892 34.134 37.008 34.086C38.202 34.038 39.294 33.576 40.176 32.778C40.596 32.394 41.088 31.932 41.1 31.326C41.1 31.152 41.1 30.972 41.1 30.798V27.198C41.1 27.198 41.1 27.186 41.1 27.18V22.14C41.1 22.14 41.1 22.128 41.1 22.122V17.406C41.1 17.406 41.094 17.382 41.094 17.37H41.1ZM25.29 25.194C24.93 25.236 24.57 25.29 24.216 25.356C24.108 25.374 24.006 25.404 23.904 25.428C23.538 25.512 23.178 25.602 22.824 25.722C22.776 25.74 22.734 25.758 22.686 25.776C22.338 25.896 22.002 26.04 21.666 26.202C21.624 26.22 21.576 26.238 21.534 26.256C21.504 26.274 21.474 26.292 21.444 26.31C21.312 26.376 21.18 26.454 21.054 26.532C20.994 26.568 20.928 26.598 20.868 26.64V23.16C21.258 22.884 21.648 22.62 22.074 22.398C22.254 22.302 22.44 22.218 22.626 22.134C22.65 22.122 22.644 22.128 22.656 22.122C22.71 22.104 22.758 22.08 22.812 22.062C22.92 22.02 23.028 21.978 23.142 21.942C23.64 21.768 24.15 21.636 24.672 21.54C24.834 21.51 24.99 21.48 25.152 21.462H25.17C25.212 21.456 25.26 21.45 25.302 21.444C25.392 21.432 25.476 21.426 25.566 21.42C25.746 21.402 25.926 21.402 26.112 21.396V25.14C25.95 25.146 25.788 25.164 25.626 25.176C25.518 25.188 25.41 25.194 25.302 25.206L25.29 25.194ZM39.804 26.544V26.838C39.804 26.838 39.792 26.85 39.78 26.856C39.762 26.874 39.738 26.892 39.72 26.91C39.72 26.91 39.696 26.928 39.684 26.94C39.72 26.91 39.672 26.952 39.66 26.958C39.63 26.976 39.606 27 39.576 27.018L39.45 27.108C39.354 27.174 39.252 27.234 39.15 27.288C39.054 27.342 38.964 27.384 38.868 27.432H38.85C38.85 27.432 38.874 27.432 38.826 27.45L38.802 27.462H38.808L38.67 27.51C38.466 27.576 38.262 27.636 38.058 27.672C38.01 27.678 37.962 27.684 37.914 27.696C37.902 27.696 37.89 27.696 37.878 27.696C37.77 27.708 37.662 27.714 37.548 27.72C37.332 27.732 37.116 27.726 36.9 27.708C36.792 27.702 36.69 27.69 36.582 27.678C36.564 27.678 36.564 27.678 36.552 27.678C36.552 27.678 36.552 27.678 36.534 27.678C36.474 27.666 36.42 27.66 36.36 27.654C36.132 27.612 35.91 27.57 35.682 27.516C35.304 27.426 34.932 27.312 34.56 27.192V23.508C35.244 23.712 35.94 23.874 36.654 23.952C37.614 24.054 38.568 23.928 39.45 23.544C39.57 23.49 39.684 23.412 39.798 23.346V26.544H39.804ZM27.798 16.374C27.876 16.386 27.948 16.398 28.026 16.416C28.176 16.44 28.338 16.476 28.488 16.506C29.088 16.638 29.676 16.818 30.258 17.016C31.266 17.364 32.256 17.76 33.258 18.126V21.69C31.356 20.994 29.436 20.22 27.408 20.088V16.338C27.498 16.344 27.588 16.344 27.678 16.356C27.714 16.362 27.756 16.368 27.798 16.374ZM28.506 30.336C28.146 30.264 27.78 30.222 27.408 30.186V26.442C27.498 26.448 27.582 26.442 27.672 26.454C27.738 26.454 27.804 26.466 27.87 26.478C27.9 26.478 28.002 26.496 28.02 26.502C28.158 26.526 28.296 26.55 28.428 26.574C28.698 26.628 28.962 26.688 29.226 26.76C29.568 26.85 29.91 26.946 30.246 27.048C31.26 27.372 32.256 27.756 33.258 28.122V31.914C31.692 31.326 30.15 30.654 28.506 30.336Z" fill="#E9530E"/>
</svg>
