<svg width="60" height="60" viewBox="0 0 60 60" fill="none" xmlns="http://www.w3.org/2000/svg">
<path d="M0 24C0 15.5992 0 11.3988 1.6349 8.19014C3.073 5.36771 5.36771 3.073 8.19014 1.6349C11.3988 0 15.5992 0 24 0H36C44.4008 0 48.6012 0 51.8099 1.6349C54.6323 3.073 56.927 5.36771 58.3651 8.19014C60 11.3988 60 15.5992 60 24V36C60 44.4008 60 48.6012 58.3651 51.8099C56.927 54.6323 54.6323 56.927 51.8099 58.3651C48.6012 60 44.4008 60 36 60H24C15.5992 60 11.3988 60 8.19014 58.3651C5.36771 56.927 3.073 54.6323 1.6349 51.8099C0 48.6012 0 44.4008 0 36V24Z" fill="black"/>
<path d="M24.67 36.268C25.252 39.346 22.606 41.998 19.528 41.422C17.806 41.098 16.414 39.718 16.084 37.996C15.49 34.912 18.142 32.248 21.232 32.836C22.954 33.16 24.346 34.552 24.67 36.274V36.268Z" fill="#E9530E"/>
<path d="M45.9161 36.268C46.4981 39.346 43.8521 41.992 40.7741 41.416C39.0521 41.092 37.6601 39.712 37.3301 37.99C36.7361 34.906 39.3881 32.242 42.4781 32.83C44.2001 33.16 45.5861 34.546 45.9161 36.268Z" fill="#E9530E"/>
<path d="M40.084 27.52L34.51 19.234C34.414 19.09 34.246 19 34.072 19H22.774C22.486 19 22.246 19.234 22.246 19.528V23.476C22.246 23.764 22.012 24.004 21.718 24.004H16.528C16.24 24.004 16 24.238 16 24.532V29.728C16 30.016 16.234 30.256 16.528 30.256H20.374C24.01 30.256 26.992 33.082 27.232 36.658C27.25 36.928 27.484 37.132 27.754 37.132H33.226C33.394 37.132 33.55 37.054 33.652 36.916L38.338 30.472C38.44 30.334 38.596 30.256 38.764 30.256H45.472C45.76 30.256 46 30.022 46 29.728V28.282C46 27.994 45.766 27.754 45.472 27.754H40.516C40.342 27.754 40.174 27.664 40.078 27.52H40.084ZM33.022 21.502L37.222 27.754H24.748V21.502H33.022Z" fill="#E9530E"/>
</svg>
