<svg width="60" height="60" viewBox="0 0 60 60" fill="none" xmlns="http://www.w3.org/2000/svg">
<path d="M0 24C0 15.5992 0 11.3988 1.6349 8.19014C3.073 5.36771 5.36771 3.073 8.19014 1.6349C11.3988 0 15.5992 0 24 0H36C44.4008 0 48.6012 0 51.8099 1.6349C54.6323 3.073 56.927 5.36771 58.3651 8.19014C60 11.3988 60 15.5992 60 24V36C60 44.4008 60 48.6012 58.3651 51.8099C56.927 54.6323 54.6323 56.927 51.8099 58.3651C48.6012 60 44.4008 60 36 60H24C15.5992 60 11.3988 60 8.19014 58.3651C5.36771 56.927 3.073 54.6323 1.6349 51.8099C0 48.6012 0 44.4008 0 36V24Z" fill="black"/>
<path d="M39.4734 20.8506C40.1989 18.8573 39.7964 16.7292 38.5923 15.166C38.4811 15.0212 38.252 15.0571 38.1898 15.2281L36.5856 19.6356C36.3845 20.1882 35.8431 20.5499 35.2546 20.5293C34.7193 20.5059 34.0596 20.4148 33.345 20.1472C32.6608 19.8982 32.1143 19.5577 31.6957 19.234C31.2317 18.8714 31.047 18.253 31.2482 17.7004L32.8548 13.2863C32.917 13.1153 32.7645 12.9406 32.5863 12.98C30.6477 13.4142 28.9577 14.8031 28.2448 16.8233C27.4313 19.1197 28.1016 21.5763 29.7597 23.1408L24.1378 38.5868C22.7627 38.9057 21.571 39.8875 21.0383 41.3102C20.2164 43.5067 21.3025 45.988 23.4709 46.8666C25.7751 47.8021 28.3736 46.6396 29.2164 44.324C29.7407 42.8833 29.4571 41.3497 28.6045 40.2125L34.2264 24.7666C36.5201 24.6255 38.6289 23.1506 39.4645 20.8548L39.4734 20.8506ZM24.4686 44.6372C23.4752 44.2757 22.9582 43.1786 23.3222 42.1787C23.6861 41.1788 24.7808 40.6683 25.7807 41.0323C26.7806 41.3962 27.291 42.4909 26.9271 43.4908C26.5632 44.4907 25.4685 45.0011 24.4686 44.6372Z" fill="#E9530E"/>
</svg>
