<svg width="427" height="449" viewBox="0 0 427 449" fill="none" xmlns="http://www.w3.org/2000/svg">
<path d="M17.5643 16.1121C16.5169 17.9467 14.8261 19.3666 12.7993 20.0645L39.4788 51.7465L44.8921 97.5129C45.1253 99.4846 46.4693 101.147 48.3482 101.789L60.0599 105.788C60.0099 105.409 59.9841 105.023 59.9841 104.631C59.9841 102.816 60.5352 101.13 61.4792 99.7311L50.9636 96.1404L45.5904 50.7123C45.4719 49.7111 45.0627 48.7665 44.4133 47.9953L17.5643 16.1121Z" fill="white"/>
<path d="M104.787 100.341L77.2165 106.942C77.4173 106.206 77.5244 105.431 77.5244 104.631C77.5244 103.226 77.1944 101.899 76.6078 100.723L103.956 94.1743C105.832 93.7253 107.801 94.3598 109.062 95.8195L136.384 127.456L152.445 123.23C154.867 122.592 157.397 123.787 158.444 126.063L181.208 175.549L205.022 198.542C203.005 199.282 201.335 200.743 200.325 202.612L176.768 179.868C176.307 179.422 175.933 178.895 175.665 178.312L153.182 129.437L137.337 133.607C135.432 134.108 133.408 133.481 132.12 131.99L104.787 100.341Z" fill="white"/>
<path d="M208.517 242.504L206.223 215.358C206.811 215.482 207.42 215.547 208.045 215.547C209.612 215.547 211.083 215.136 212.356 214.416L214.659 241.66L238.781 270.705C239.639 271.738 240.06 273.065 239.955 274.404L238.491 293.068C237.986 292.978 237.466 292.931 236.935 292.931C235.183 292.931 233.552 293.444 232.183 294.328L233.751 274.338L209.689 245.366C209.015 244.554 208.606 243.555 208.517 242.504Z" fill="white"/>
<path d="M235.559 310.364L251.176 343.241L243.122 371.195L224.346 379.896C222.656 380.679 221.519 382.313 221.373 384.171L220.282 397.988C219.931 402.427 224.991 405.195 228.54 402.506L240.989 393.075L274.488 395.046C275.214 395.089 275.941 394.977 276.621 394.719L289.659 389.774L302.694 398.676C302.536 398.018 302.453 397.331 302.453 396.625C302.453 393.04 304.604 389.957 307.686 388.597L296.729 369.906L296.09 359.041L309.675 367.401V387.991C310.178 387.901 310.695 387.855 311.223 387.855C314.509 387.855 317.372 389.661 318.874 392.335L329.787 363.494C330.302 362.134 330.219 360.619 329.558 359.324L317.927 336.529L327.84 322.561C328.415 321.751 328.744 320.792 328.787 319.799L331.06 267.514C330.034 267.936 328.91 268.168 327.732 268.168C326.724 268.168 325.757 267.998 324.856 267.686L322.615 319.226L312.517 333.455C311.406 335.021 311.256 337.075 312.129 338.785L323.836 361.73L315.866 382.793V366.824C315.866 365.033 314.937 363.37 313.411 362.431L297.647 352.73C294.093 350.543 289.549 353.261 289.794 357.427L290.564 370.517C290.611 371.33 290.851 372.121 291.263 372.823L301.576 390.415L292.706 384.358C291.314 383.407 289.544 383.197 287.967 383.795L274.632 388.853L240.972 386.873C239.745 386.801 238.533 387.169 237.554 387.911L226.634 396.183L227.497 385.259L246.152 376.614C247.509 375.985 248.526 374.799 248.94 373.362L257.233 344.58C257.582 343.371 257.476 342.075 256.936 340.938L241.773 309.017C240.386 309.936 238.723 310.471 236.935 310.471C236.467 310.471 236.007 310.434 235.559 310.364Z" fill="white"/>
<path d="M321.735 265.797C320.19 264.349 319.169 262.347 318.99 260.108L300.462 264.824L281.826 252.136L297.192 244.818L319.3 256.977C320.35 253.311 323.728 250.628 327.732 250.628C328.088 250.628 328.439 250.649 328.784 250.69L321.831 231.296L337.225 203.42L343.936 218.607L328.954 250.712C331.122 251.014 333.036 252.109 334.394 253.694L349.744 220.801C350.374 219.452 350.39 217.896 349.788 216.534L342.047 199.015C340.322 195.112 334.875 194.871 332.812 198.606L316.187 228.711C315.47 230.008 315.346 231.551 315.846 232.946L322.574 251.713L299.712 239.139C298.258 238.339 296.507 238.288 295.008 239.002L277.542 247.319C273.946 249.032 273.564 254 276.856 256.241L297.363 270.203C298.585 271.035 300.105 271.303 301.538 270.938L321.735 265.797Z" fill="white"/>
<path d="M242.889 308.14L260.775 315.096C262.103 315.612 263.585 315.556 264.871 314.942L284.649 305.482C288.188 303.79 288.618 298.923 285.43 296.637L265.596 282.408C263.974 281.244 261.828 281.121 260.083 282.09L239.743 293.39C241.914 294.123 243.704 295.684 244.739 297.696L262.518 287.819L280.405 300.65L262.602 309.164L245.662 302.576C245.445 304.769 244.42 306.724 242.889 308.14Z" fill="white"/>
<path d="M44.5001 62.5148L57.906 81.7902L45.5319 79.0233L33.1578 83.479L44.5001 62.5148Z" fill="white"/>
<path d="M116.063 109.274L138.744 115.342L127.507 121.216L120.932 132.607L116.063 109.274Z" fill="white"/>
<path d="M215.114 247.532L237.795 253.601L226.558 259.475L219.983 270.865L215.114 247.532Z" fill="white"/>
<path d="M253.478 348.647L257.66 371.75L247.555 364.091L234.449 363.001L253.478 348.647Z" fill="white"/>
<path d="M326.201 360.205L306.262 347.809L318.721 345.453L328.321 336.464L326.201 360.205Z" fill="white"/>
<circle cx="69.1216" cy="104.084" r="8.81006" fill="#E9530E" stroke="white" stroke-width="3"/>
<circle cx="10.3101" cy="11.2238" r="8.81006" fill="#E9530E" stroke="white" stroke-width="3"/>
<circle cx="208.412" cy="206.231" r="8.81006" fill="#E9530E" stroke="white" stroke-width="3"/>
<circle cx="237.302" cy="301.155" r="8.81006" fill="#E9530E" stroke="white" stroke-width="3"/>
<circle cx="311.59" cy="396.079" r="8.81006" fill="#E9530E" stroke="white" stroke-width="3"/>
<circle cx="328.099" cy="258.852" r="8.81006" fill="#E9530E" stroke="white" stroke-width="3"/>
<g opacity="0.8">
<path d="M43.5648 16V8.99696L45.9625 12.2865H47.1321L49.4859 8.99696V16H51.562V5.76591H49.4859L46.5181 10.0057L43.5502 5.76591H41.4595V16H43.5648ZM55.8267 13.807C55.4466 13.4122 55.2565 12.9298 55.2565 12.345C55.2565 11.7602 55.4466 11.2777 55.8267 10.8976C56.2069 10.5028 56.6893 10.3128 57.2741 10.3128C57.8589 10.3128 58.3414 10.5028 58.7215 10.8976C59.1016 11.2777 59.2917 11.7602 59.2917 12.345C59.2917 12.9298 59.1016 13.4122 58.7215 13.807C58.3414 14.2017 57.8589 14.3918 57.2741 14.3918C56.6893 14.3918 56.2069 14.2017 55.8267 13.807ZM53.2243 12.345C53.2243 13.4415 53.6045 14.3479 54.3647 15.0936C55.125 15.8246 56.0899 16.1901 57.2741 16.1901C58.4584 16.1901 59.4233 15.8246 60.1835 15.0936C60.9438 14.3479 61.3239 13.4415 61.3239 12.345C61.3239 11.2777 60.9438 10.3713 60.1835 9.62563C59.4233 8.88 58.4584 8.5145 57.2741 8.5145C56.0899 8.5145 55.125 8.88 54.3647 9.62563C53.6045 10.3566 53.2243 11.2631 53.2243 12.345ZM66.324 16.1901C67.1866 16.1901 67.9468 16.0146 68.634 15.6491V13.8947C68.0638 14.231 67.4059 14.3918 66.6602 14.3918C66.0316 14.3918 65.4906 14.2017 65.052 13.8216C64.6134 13.4415 64.3941 12.9444 64.3941 12.345C64.3941 11.7455 64.6134 11.2485 65.0374 10.883C65.476 10.5028 66.017 10.3128 66.6602 10.3128C67.2597 10.3128 67.8883 10.459 68.517 10.7514V8.99696C67.8737 8.67532 67.1573 8.5145 66.3532 8.5145C65.2567 8.5145 64.321 8.86538 63.5315 9.56715C62.7567 10.2543 62.3619 11.1754 62.3619 12.3303C62.3619 13.4853 62.7567 14.421 63.5315 15.1374C64.3064 15.8392 65.2421 16.1901 66.324 16.1901ZM72.4443 16V12.8567L75.3245 16H77.9854L74.3157 11.9941L77.4883 8.70456H74.959L72.4443 11.3654V8.70456H70.3829V16H72.4443ZM83.4333 16C85.1292 16 86.0942 15.2251 86.0942 13.997C86.0942 13.076 85.6263 12.4473 84.7052 12.1257C85.3047 11.8186 85.5971 11.3069 85.5971 10.5759C85.5971 9.50866 84.7783 8.70456 83.2578 8.70456H79.135V16H83.4333ZM81.1672 12.9152H82.9216C83.638 12.9152 83.9889 13.1929 83.9889 13.7339C83.9889 14.2748 83.638 14.5526 82.9216 14.5526H81.1672V12.9152ZM81.1672 10.1227H82.5999C83.2578 10.1227 83.5795 10.3713 83.5795 10.8683C83.5795 11.3654 83.2578 11.614 82.5999 11.614H81.1672V10.1227ZM94.6317 14.4064C94.2955 14.4064 94.12 14.2163 94.12 13.8508V11.38C94.12 10.4882 93.7984 9.78645 93.1551 9.27474C92.5264 8.76304 91.6785 8.5145 90.6404 8.5145C89.5732 8.5145 88.6813 8.70456 87.9357 9.0993V10.8245C88.6229 10.4151 89.3685 10.2104 90.1434 10.2104C91.4299 10.2104 92.0732 10.6637 92.0732 11.5847V11.804C91.4884 11.497 90.7866 11.3508 89.9679 11.3508C89.1784 11.3508 88.5059 11.5555 87.9357 11.9648C87.3655 12.3742 87.0878 12.9736 87.0878 13.7485C87.0878 15.2251 88.1989 16.1901 89.7779 16.1901C90.8159 16.1901 91.6492 15.8538 92.2925 15.1959C92.5703 15.8246 93.1112 16.1316 93.9446 16.1316C94.4271 16.1316 94.7926 16.0292 95.0557 15.8246V14.3187C94.9534 14.3772 94.8072 14.4064 94.6317 14.4064ZM92.0732 13.8508C91.6931 14.3479 91.1375 14.5965 90.4211 14.5965C89.6609 14.5965 89.12 14.2894 89.12 13.6462C89.12 13.0467 89.6755 12.6959 90.5527 12.6959C91.1521 12.6959 91.6492 12.8421 92.0732 13.1198V13.8508Z" fill="white"/>
<path d="M43.2285 32.8275V25.1519H42.5158L40.7066 26.2375V27.016L42.4281 26.0292V32.8275H43.2285ZM48.1085 32.9591C48.8432 32.9591 49.4682 32.7179 49.9616 32.2244C50.466 31.731 50.7182 31.117 50.7182 30.3604C50.7182 29.6476 50.477 29.0555 49.9945 28.606C49.523 28.1454 48.9309 27.9152 48.2401 27.9152C47.1984 27.9152 46.398 28.3647 45.9922 29.0555C46.0251 27.4327 46.7817 25.777 48.6019 25.777C49.1612 25.777 49.6765 25.9414 50.159 26.2704V25.4919C49.7094 25.1739 49.1612 25.0204 48.5361 25.0204C46.4528 25.0094 45.1589 26.9722 45.2028 29.3625C45.2028 30.4919 45.4659 31.3801 45.9813 32.0161C46.4966 32.6411 47.2094 32.9591 48.1085 32.9591ZM48.0646 32.2025C46.8694 32.2025 46.1458 31.4349 46.0142 30.1191C46.1567 29.6915 46.4089 29.3406 46.7927 29.0555C47.1765 28.7704 47.5931 28.6279 48.0427 28.6279C48.58 28.6279 49.0186 28.7814 49.3805 29.0994C49.7423 29.4174 49.9177 29.834 49.9177 30.3604C49.9177 30.8977 49.7423 31.3363 49.3805 31.6871C49.0296 32.0271 48.591 32.2025 48.0646 32.2025ZM52.0799 32.7288C52.2992 32.9481 52.672 32.9481 52.8913 32.7288C53.1106 32.5095 53.1106 32.1367 52.8913 31.9174C52.672 31.6981 52.2992 31.6981 52.0799 31.9174C51.8606 32.1367 51.8606 32.5095 52.0799 32.7288ZM54.0787 28.9897C54.0787 30.1191 54.3638 31.0621 54.945 31.8187C55.5261 32.5753 56.2937 32.9591 57.2257 32.9591C58.1578 32.9591 58.9143 32.5753 59.4955 31.8187C60.0766 31.0621 60.3617 30.1191 60.3617 28.9897C60.3617 27.8603 60.0766 26.9173 59.4955 26.1607C58.9143 25.4041 58.1578 25.0204 57.2257 25.0204C56.2937 25.0204 55.5261 25.4041 54.945 26.1717C54.3638 26.9283 54.0787 27.8713 54.0787 28.9897ZM59.5613 28.9897C59.5613 29.9108 59.342 30.6784 58.9034 31.2924C58.4757 31.8955 57.9165 32.2025 57.2257 32.2025C56.5349 32.2025 55.9757 31.8955 55.5371 31.2924C55.1095 30.6784 54.8902 29.9108 54.8902 28.9897C54.8902 28.0796 55.1095 27.3121 55.5481 26.698C55.9867 26.084 56.5459 25.777 57.2257 25.777C57.9056 25.777 58.4648 26.084 58.9034 26.698C59.342 27.3121 59.5613 28.0796 59.5613 28.9897ZM62.9741 32.8275L66.5597 25.755V25.1519H61.4938V25.8866H65.6276L62.1188 32.8275H62.9741ZM66.5251 32.7288C66.7444 32.9481 67.1173 32.9481 67.3366 32.7288C67.5559 32.5095 67.5559 32.1367 67.3366 31.9174C67.1173 31.6981 66.7444 31.6981 66.5251 31.9174C66.3058 32.1367 66.3058 32.5095 66.5251 32.7288ZM74.2731 32.8275V32.0929H70.227L72.2884 30.1082C72.9134 29.5161 73.352 29.0117 73.6042 28.606C73.8564 28.1893 73.988 27.7178 73.988 27.2024C73.988 26.5555 73.7468 26.0292 73.2753 25.6234C72.8038 25.2177 72.2226 25.0204 71.5099 25.0204C70.6217 25.0204 69.8651 25.3164 69.2182 25.8976V26.8077C69.8871 26.1169 70.6327 25.777 71.4331 25.777C72.4748 25.777 73.1766 26.391 73.1766 27.3011C73.1766 27.7287 73.056 28.1125 72.8257 28.4524C72.5954 28.7924 72.2007 29.22 71.6305 29.7573L69.0427 32.2244V32.8275H74.2731ZM75.602 28.9897C75.602 30.1191 75.8871 31.0621 76.4683 31.8187C77.0494 32.5753 77.817 32.9591 78.749 32.9591C79.681 32.9591 80.4376 32.5753 81.0188 31.8187C81.5999 31.0621 81.885 30.1191 81.885 28.9897C81.885 27.8603 81.5999 26.9173 81.0188 26.1607C80.4376 25.4041 79.681 25.0204 78.749 25.0204C77.817 25.0204 77.0494 25.4041 76.4683 26.1717C75.8871 26.9283 75.602 27.8713 75.602 28.9897ZM81.0846 28.9897C81.0846 29.9108 80.8653 30.6784 80.4267 31.2924C79.999 31.8955 79.4398 32.2025 78.749 32.2025C78.0582 32.2025 77.499 31.8955 77.0604 31.2924C76.6327 30.6784 76.4134 29.9108 76.4134 28.9897C76.4134 28.0796 76.6327 27.3121 77.0713 26.698C77.5099 26.084 78.0692 25.777 78.749 25.777C79.4288 25.777 79.9881 26.084 80.4267 26.698C80.8653 27.3121 81.0846 28.0796 81.0846 28.9897ZM88.3435 32.8275V32.0929H84.2974L86.3589 30.1082C86.9839 29.5161 87.4225 29.0117 87.6747 28.606C87.9269 28.1893 88.0584 27.7178 88.0584 27.2024C88.0584 26.5555 87.8172 26.0292 87.3457 25.6234C86.8742 25.2177 86.2931 25.0204 85.5803 25.0204C84.6922 25.0204 83.9356 25.3164 83.2886 25.8976V26.8077C83.9575 26.1169 84.7031 25.777 85.5036 25.777C86.5453 25.777 87.247 26.391 87.247 27.3011C87.247 27.7287 87.1264 28.1125 86.8961 28.4524C86.6659 28.7924 86.2711 29.22 85.701 29.7573L83.1132 32.2244V32.8275H88.3435ZM94.6506 32.8275V32.0929H90.6045L92.6659 30.1082C93.2909 29.5161 93.7295 29.0117 93.9817 28.606C94.2339 28.1893 94.3655 27.7178 94.3655 27.2024C94.3655 26.5555 94.1243 26.0292 93.6528 25.6234C93.1813 25.2177 92.6001 25.0204 91.8874 25.0204C90.9992 25.0204 90.2426 25.3164 89.5957 25.8976V26.8077C90.2646 26.1169 91.0102 25.777 91.8106 25.777C92.8523 25.777 93.5541 26.391 93.5541 27.3011C93.5541 27.7287 93.4335 28.1125 93.2032 28.4524C92.9729 28.7924 92.5782 29.22 92.008 29.7573L89.4203 32.2244V32.8275H94.6506Z" fill="white"/>
<path d="M51.6681 139.27C51.8728 139.357 52.1652 139.401 52.5307 139.401C53.7442 139.401 54.5775 138.948 55.06 138.041C55.5425 137.12 55.8056 135.468 55.8787 133.085L55.9372 131.009H59.0367V139.357H61.1274V129.123H53.905L53.8612 132.12C53.8319 134.196 53.715 135.615 53.5249 136.36C53.3348 137.106 52.9693 137.486 52.4138 137.486C52.1214 137.486 51.8728 137.442 51.6681 137.369V139.27ZM65.2125 139.357L68.5167 135.059V139.357H70.5489V132.062H68.619L65.3149 136.36V132.062H63.2827V139.357H65.2125ZM74.6245 139.357V133.787H77.5339V139.357H79.5953V132.062H72.563V139.357H74.6245ZM85.1823 139.547C86.3811 139.547 87.3022 139.299 87.9601 138.802V137.15C87.2145 137.574 86.4396 137.793 85.6209 137.793C84.3343 137.793 83.3986 137.267 83.1793 136.272H88.4133V135.732C88.4133 134.65 88.0917 133.743 87.463 132.998C86.8343 132.252 86.001 131.872 84.9337 131.872C83.808 131.872 82.8869 132.237 82.1851 132.983C81.4834 133.714 81.1325 134.62 81.1325 135.702C81.1325 136.857 81.5272 137.793 82.3021 138.495C83.077 139.196 84.0419 139.547 85.1823 139.547ZM83.1793 134.957C83.2816 134.094 83.9103 133.495 84.846 133.495C85.7671 133.495 86.3372 134.153 86.3811 134.957H83.1793ZM98.2562 141.214V137.632H97.0573V132.062H94.9959V137.632H92.0573V132.062H89.9958V139.357H96.2679V141.214H98.2562ZM101.737 139.357V136.214L104.618 139.357H107.278L103.609 135.351L106.781 132.062H104.252L101.737 134.723V132.062H99.6759V139.357H101.737Z" fill="white"/>
<path d="M54.4606 156.185V148.509H53.7478L51.9386 149.595V150.373L53.6601 149.386V156.185H54.4606ZM58.4524 156.316C59.3186 156.316 60.0423 156.075 60.6235 155.604C61.2046 155.132 61.4897 154.518 61.4897 153.762C61.4897 153.049 61.2266 152.457 60.6893 152.007C60.152 151.547 59.4831 151.316 58.6827 151.316C58.2331 151.316 57.8274 151.36 57.4655 151.459L57.7726 149.244H60.9524V148.509H57.1585L56.6541 152.325C57.2462 152.117 57.8603 152.007 58.4962 152.007C59.823 152.007 60.6783 152.742 60.6783 153.762C60.6783 154.288 60.47 154.715 60.0423 155.055C59.6147 155.395 59.0774 155.56 58.4305 155.56C57.641 155.56 56.9392 155.373 56.3361 155.001V155.812C56.9173 156.152 57.63 156.316 58.4524 156.316ZM66.3766 153.575V152.84H63.2954V153.575H66.3766ZM70.1587 156.185V148.509H69.4459L67.6367 149.595V150.373L69.3582 149.386V156.185H70.1587ZM75.0386 156.316C75.7733 156.316 76.3983 156.075 76.8917 155.582C77.3961 155.088 77.6483 154.474 77.6483 153.718C77.6483 153.005 77.4071 152.413 76.9246 151.963C76.4531 151.503 75.861 151.272 75.1702 151.272C74.1285 151.272 73.3281 151.722 72.9224 152.413C72.9553 150.79 73.7119 149.134 75.5321 149.134C76.0913 149.134 76.6066 149.299 77.0891 149.628V148.849C76.6395 148.531 76.0913 148.378 75.4663 148.378C73.3829 148.367 72.089 150.329 72.1329 152.72C72.1329 153.849 72.396 154.737 72.9114 155.373C73.4268 155.998 74.1395 156.316 75.0386 156.316ZM74.9948 155.56C73.7996 155.56 73.0759 154.792 72.9443 153.476C73.0868 153.049 73.339 152.698 73.7228 152.413C74.1066 152.128 74.5233 151.985 74.9728 151.985C75.5101 151.985 75.9487 152.139 76.3106 152.457C76.6724 152.775 76.8479 153.191 76.8479 153.718C76.8479 154.255 76.6724 154.694 76.3106 155.044C75.9597 155.384 75.5211 155.56 74.9948 155.56ZM79.0101 156.086C79.2294 156.305 79.6022 156.305 79.8215 156.086C80.0408 155.867 80.0408 155.494 79.8215 155.275C79.6022 155.055 79.2294 155.055 79.0101 155.275C78.7907 155.494 78.7907 155.867 79.0101 156.086ZM81.0089 152.347C81.0089 153.476 81.294 154.419 81.8751 155.176C82.4563 155.933 83.2238 156.316 84.1558 156.316C85.0879 156.316 85.8445 155.933 86.4256 155.176C87.0068 154.419 87.2919 153.476 87.2919 152.347C87.2919 151.218 87.0068 150.275 86.4256 149.518C85.8445 148.761 85.0879 148.378 84.1558 148.378C83.2238 148.378 82.4563 148.761 81.8751 149.529C81.294 150.286 81.0089 151.229 81.0089 152.347ZM86.4914 152.347C86.4914 153.268 86.2721 154.036 85.8335 154.65C85.4059 155.253 84.8466 155.56 84.1558 155.56C83.465 155.56 82.9058 155.253 82.4672 154.65C82.0396 154.036 81.8203 153.268 81.8203 152.347C81.8203 151.437 82.0396 150.669 82.4782 150.055C82.9168 149.441 83.476 149.134 84.1558 149.134C84.8357 149.134 85.3949 149.441 85.8335 150.055C86.2721 150.669 86.4914 151.437 86.4914 152.347ZM89.9042 156.185L93.4898 149.112V148.509H88.4239V149.244H92.5578L89.0489 156.185H89.9042ZM93.4553 156.086C93.6746 156.305 94.0474 156.305 94.2667 156.086C94.486 155.867 94.486 155.494 94.2667 155.275C94.0474 155.055 93.6746 155.055 93.4553 155.275C93.236 155.494 93.236 155.867 93.4553 156.086ZM101.203 156.185V155.45H97.1571L99.2185 153.465C99.8436 152.873 100.282 152.369 100.534 151.963C100.787 151.547 100.918 151.075 100.918 150.56C100.918 149.913 100.677 149.386 100.205 148.981C99.7339 148.575 99.1528 148.378 98.44 148.378C97.5518 148.378 96.7953 148.674 96.1483 149.255V150.165C96.8172 149.474 97.5628 149.134 98.3633 149.134C99.4049 149.134 100.107 149.748 100.107 150.658C100.107 151.086 99.9861 151.47 99.7558 151.81C99.5256 152.15 99.1308 152.577 98.5606 153.115L95.9729 155.582V156.185H101.203ZM102.532 152.347C102.532 153.476 102.817 154.419 103.398 155.176C103.98 155.933 104.747 156.316 105.679 156.316C106.611 156.316 107.368 155.933 107.949 155.176C108.53 154.419 108.815 153.476 108.815 152.347C108.815 151.218 108.53 150.275 107.949 149.518C107.368 148.761 106.611 148.378 105.679 148.378C104.747 148.378 103.98 148.761 103.398 149.529C102.817 150.286 102.532 151.229 102.532 152.347ZM108.015 152.347C108.015 153.268 107.795 154.036 107.357 154.65C106.929 155.253 106.37 155.56 105.679 155.56C104.988 155.56 104.429 155.253 103.99 154.65C103.563 154.036 103.344 153.268 103.344 152.347C103.344 151.437 103.563 150.669 104.001 150.055C104.44 149.441 104.999 149.134 105.679 149.134C106.359 149.134 106.918 149.441 107.357 150.055C107.795 150.669 108.015 151.437 108.015 152.347ZM115.274 156.185V155.45H111.228L113.289 153.465C113.914 152.873 114.353 152.369 114.605 151.963C114.857 151.547 114.989 151.075 114.989 150.56C114.989 149.913 114.747 149.386 114.276 148.981C113.804 148.575 113.223 148.378 112.51 148.378C111.622 148.378 110.866 148.674 110.219 149.255V150.165C110.888 149.474 111.633 149.134 112.434 149.134C113.475 149.134 114.177 149.748 114.177 150.658C114.177 151.086 114.057 151.47 113.826 151.81C113.596 152.15 113.201 152.577 112.631 153.115L110.043 155.582V156.185H115.274ZM121.581 156.185V155.45H117.535L119.596 153.465C120.221 152.873 120.66 152.369 120.912 151.963C121.164 151.547 121.296 151.075 121.296 150.56C121.296 149.913 121.054 149.386 120.583 148.981C120.111 148.575 119.53 148.378 118.818 148.378C117.929 148.378 117.173 148.674 116.526 149.255V150.165C117.195 149.474 117.94 149.134 118.741 149.134C119.782 149.134 120.484 149.748 120.484 150.658C120.484 151.086 120.364 151.47 120.133 151.81C119.903 152.15 119.508 152.577 118.938 153.115L116.35 155.582V156.185H121.581Z" fill="white"/>
<path d="M216.9 172.253C217.982 172.253 218.845 171.989 219.488 171.448C220.131 170.908 220.453 170.206 220.453 169.343C220.453 168.598 220.248 167.998 219.839 167.516C219.43 167.033 218.947 166.726 218.377 166.609C219.079 166.317 219.664 165.615 219.664 164.577C219.664 162.94 218.436 162.018 216.564 162.018H211.754V172.253H216.9ZM213.859 167.764H216.506C217.544 167.764 218.172 168.247 218.172 169.109C218.172 169.972 217.544 170.44 216.506 170.44H213.859V167.764ZM213.859 163.773H216.228C217.105 163.773 217.631 164.197 217.631 164.913C217.631 165.615 217.105 166.024 216.228 166.024H213.859V163.773ZM224.223 170.06C223.842 169.665 223.652 169.182 223.652 168.598C223.652 168.013 223.842 167.53 224.223 167.15C224.603 166.755 225.085 166.565 225.67 166.565C226.255 166.565 226.737 166.755 227.117 167.15C227.497 167.53 227.687 168.013 227.687 168.598C227.687 169.182 227.497 169.665 227.117 170.06C226.737 170.454 226.255 170.644 225.67 170.644C225.085 170.644 224.603 170.454 224.223 170.06ZM221.62 168.598C221.62 169.694 222 170.6 222.76 171.346C223.521 172.077 224.486 172.443 225.67 172.443C226.854 172.443 227.819 172.077 228.579 171.346C229.34 170.6 229.72 169.694 229.72 168.598C229.72 167.53 229.34 166.624 228.579 165.878C227.819 165.133 226.854 164.767 225.67 164.767C224.486 164.767 223.521 165.133 222.76 165.878C222 166.609 221.62 167.516 221.62 168.598ZM236.202 166.682V172.253H238.263V164.957H231.962L231.918 167.106C231.903 168.32 231.859 168.934 231.684 169.621C231.523 170.279 231.216 170.557 230.734 170.557C230.573 170.557 230.427 170.542 230.31 170.498V172.179C230.47 172.267 230.734 172.311 231.084 172.311C232.532 172.267 233.234 171.492 233.585 170.264C233.833 169.387 233.877 168.714 233.921 167.706L233.95 166.682H236.202ZM242.339 172.253V166.682H246.067V164.957H240.278V172.253H242.339ZM249.379 170.06C248.999 169.665 248.809 169.182 248.809 168.598C248.809 168.013 248.999 167.53 249.379 167.15C249.76 166.755 250.242 166.565 250.827 166.565C251.412 166.565 251.894 166.755 252.274 167.15C252.654 167.53 252.844 168.013 252.844 168.598C252.844 169.182 252.654 169.665 252.274 170.06C251.894 170.454 251.412 170.644 250.827 170.644C250.242 170.644 249.76 170.454 249.379 170.06ZM246.777 168.598C246.777 169.694 247.157 170.6 247.917 171.346C248.678 172.077 249.643 172.443 250.827 172.443C252.011 172.443 252.976 172.077 253.736 171.346C254.496 170.6 254.877 169.694 254.877 168.598C254.877 167.53 254.496 166.624 253.736 165.878C252.976 165.133 252.011 164.767 250.827 164.767C249.643 164.767 248.678 165.133 247.917 165.878C247.157 166.609 246.777 167.516 246.777 168.598ZM258.458 172.253V166.682H262.187V164.957H256.397V172.253H258.458ZM267.938 164.767C266.885 164.767 266.081 165.133 265.54 165.849V164.957H263.479V175.177H265.54V171.361C266.11 172.077 266.9 172.443 267.938 172.443C268.932 172.443 269.751 172.077 270.394 171.346C271.052 170.6 271.374 169.694 271.374 168.612C271.374 167.516 271.052 166.609 270.394 165.878C269.751 165.133 268.932 164.767 267.938 164.767ZM267.353 166.565C267.923 166.565 268.406 166.755 268.771 167.15C269.137 167.545 269.327 168.027 269.327 168.612C269.327 169.182 269.137 169.665 268.771 170.06C268.406 170.454 267.923 170.644 267.353 170.644C266.549 170.644 265.876 170.191 265.54 169.562V167.662C265.876 167.033 266.549 166.565 267.353 166.565ZM279.832 170.659C279.496 170.659 279.32 170.469 279.32 170.103V167.633C279.32 166.741 278.999 166.039 278.355 165.527C277.727 165.016 276.879 164.767 275.841 164.767C274.774 164.767 273.882 164.957 273.136 165.352V167.077C273.823 166.668 274.569 166.463 275.344 166.463C276.63 166.463 277.274 166.916 277.274 167.837V168.057C276.689 167.75 275.987 167.603 275.168 167.603C274.379 167.603 273.706 167.808 273.136 168.217C272.566 168.627 272.288 169.226 272.288 170.001C272.288 171.478 273.399 172.443 274.978 172.443C276.016 172.443 276.85 172.106 277.493 171.448C277.771 172.077 278.312 172.384 279.145 172.384C279.627 172.384 279.993 172.282 280.256 172.077V170.571C280.154 170.63 280.008 170.659 279.832 170.659ZM277.274 170.103C276.893 170.6 276.338 170.849 275.621 170.849C274.861 170.849 274.32 170.542 274.32 169.899C274.32 169.299 274.876 168.948 275.753 168.948C276.352 168.948 276.85 169.095 277.274 169.372V170.103ZM282.94 174.109V172.253H288.203V174.109H290.147V170.527H288.949V164.957H282.808L282.779 166.375C282.75 168.291 282.457 169.665 281.902 170.527H280.966V174.109H282.94ZM284.007 170.527C284.431 169.489 284.65 168.203 284.65 166.682H286.931V170.527H284.007Z" fill="white"/>
<path d="M213.523 189.08V181.405H212.81L211.001 182.49V183.269L212.723 182.282V189.08H213.523ZM220.026 189.08V186.964H221.298V186.229H220.026V181.405H219.247L215.114 186.317V186.964H219.237V189.08H220.026ZM219.237 182.479V186.229H216.057L219.237 182.479ZM225.835 186.47V185.736H222.754V186.47H225.835ZM229.617 189.08V181.405H228.905L227.096 182.49V183.269L228.817 182.282V189.08H229.617ZM233.609 189.212C234.476 189.212 235.199 188.97 235.78 188.499C236.362 188.027 236.647 187.413 236.647 186.657C236.647 185.944 236.383 185.352 235.846 184.902C235.309 184.442 234.64 184.212 233.84 184.212C233.39 184.212 232.984 184.255 232.622 184.354L232.929 182.139H236.109V181.405H232.315L231.811 185.22C232.403 185.012 233.017 184.902 233.653 184.902C234.98 184.902 235.835 185.637 235.835 186.657C235.835 187.183 235.627 187.611 235.199 187.951C234.772 188.291 234.234 188.455 233.587 188.455C232.798 188.455 232.096 188.269 231.493 187.896V188.707C232.074 189.047 232.787 189.212 233.609 189.212ZM238.105 188.981C238.324 189.201 238.697 189.201 238.916 188.981C239.136 188.762 239.136 188.389 238.916 188.17C238.697 187.951 238.324 187.951 238.105 188.17C237.885 188.389 237.885 188.762 238.105 188.981ZM240.104 185.242C240.104 186.372 240.389 187.315 240.97 188.071C241.551 188.828 242.319 189.212 243.251 189.212C244.183 189.212 244.939 188.828 245.52 188.071C246.102 187.315 246.387 186.372 246.387 185.242C246.387 184.113 246.102 183.17 245.52 182.413C244.939 181.657 244.183 181.273 243.251 181.273C242.319 181.273 241.551 181.657 240.97 182.424C240.389 183.181 240.104 184.124 240.104 185.242ZM245.586 185.242C245.586 186.163 245.367 186.931 244.928 187.545C244.501 188.148 243.941 188.455 243.251 188.455C242.56 188.455 242.001 188.148 241.562 187.545C241.134 186.931 240.915 186.163 240.915 185.242C240.915 184.332 241.134 183.565 241.573 182.951C242.012 182.337 242.571 182.03 243.251 182.03C243.93 182.03 244.49 182.337 244.928 182.951C245.367 183.565 245.586 184.332 245.586 185.242ZM248.999 189.08L252.585 182.008V181.405H247.519V182.139H251.653L248.144 189.08H248.999ZM252.55 188.981C252.769 189.201 253.142 189.201 253.361 188.981C253.581 188.762 253.581 188.389 253.361 188.17C253.142 187.951 252.769 187.951 252.55 188.17C252.331 188.389 252.331 188.762 252.55 188.981ZM260.298 189.08V188.345H256.252L258.313 186.361C258.938 185.769 259.377 185.264 259.629 184.859C259.881 184.442 260.013 183.97 260.013 183.455C260.013 182.808 259.772 182.282 259.3 181.876C258.829 181.47 258.248 181.273 257.535 181.273C256.647 181.273 255.89 181.569 255.243 182.15V183.06C255.912 182.369 256.658 182.03 257.458 182.03C258.5 182.03 259.201 182.644 259.201 183.554C259.201 183.981 259.081 184.365 258.851 184.705C258.62 185.045 258.226 185.473 257.655 186.01L255.068 188.477V189.08H260.298ZM261.627 185.242C261.627 186.372 261.912 187.315 262.493 188.071C263.074 188.828 263.842 189.212 264.774 189.212C265.706 189.212 266.462 188.828 267.044 188.071C267.625 187.315 267.91 186.372 267.91 185.242C267.91 184.113 267.625 183.17 267.044 182.413C266.462 181.657 265.706 181.273 264.774 181.273C263.842 181.273 263.074 181.657 262.493 182.424C261.912 183.181 261.627 184.124 261.627 185.242ZM267.109 185.242C267.109 186.163 266.89 186.931 266.452 187.545C266.024 188.148 265.465 188.455 264.774 188.455C264.083 188.455 263.524 188.148 263.085 187.545C262.658 186.931 262.438 186.163 262.438 185.242C262.438 184.332 262.658 183.565 263.096 182.951C263.535 182.337 264.094 182.03 264.774 182.03C265.454 182.03 266.013 182.337 266.452 182.951C266.89 183.565 267.109 184.332 267.109 185.242ZM274.368 189.08V188.345H270.322L272.384 186.361C273.009 185.769 273.447 185.264 273.7 184.859C273.952 184.442 274.083 183.97 274.083 183.455C274.083 182.808 273.842 182.282 273.371 181.876C272.899 181.47 272.318 181.273 271.605 181.273C270.717 181.273 269.96 181.569 269.314 182.15V183.06C269.982 182.369 270.728 182.03 271.528 182.03C272.57 182.03 273.272 182.644 273.272 183.554C273.272 183.981 273.151 184.365 272.921 184.705C272.691 185.045 272.296 185.473 271.726 186.01L269.138 188.477V189.08H274.368ZM280.675 189.08V188.345H276.629L278.691 186.361C279.316 185.769 279.754 185.264 280.007 184.859C280.259 184.442 280.39 183.97 280.39 183.455C280.39 182.808 280.149 182.282 279.678 181.876C279.206 181.47 278.625 181.273 277.912 181.273C277.024 181.273 276.268 181.569 275.621 182.15V183.06C276.289 182.369 277.035 182.03 277.836 182.03C278.877 182.03 279.579 182.644 279.579 183.554C279.579 183.981 279.458 184.365 279.228 184.705C278.998 185.045 278.603 185.473 278.033 186.01L275.445 188.477V189.08H280.675Z" fill="white"/>
<path d="M147.393 306.78C148.943 306.78 150.244 306.268 151.312 305.23C152.379 304.192 152.905 302.935 152.905 301.458C152.905 299.967 152.379 298.709 151.326 297.686C150.274 296.648 148.972 296.136 147.423 296.136C146.443 296.136 145.537 296.355 144.718 296.794V298.856C145.522 298.344 146.443 298.081 147.452 298.081C148.198 298.081 148.841 298.3 149.411 298.739C149.981 299.163 150.347 299.733 150.522 300.42H146.633V302.189H150.624C150.478 302.964 150.098 303.607 149.499 304.104C148.899 304.587 148.198 304.835 147.408 304.835C146.224 304.835 145.259 304.543 144.528 303.958V306.049C145.347 306.531 146.297 306.78 147.393 306.78ZM159.449 301.005V306.575H161.51V299.28H155.209L155.165 301.429C155.15 302.642 155.106 303.256 154.931 303.943C154.77 304.601 154.463 304.879 153.981 304.879C153.82 304.879 153.674 304.864 153.557 304.821V306.502C153.717 306.59 153.981 306.633 154.331 306.633C155.779 306.59 156.481 305.815 156.832 304.587C157.08 303.709 157.124 303.037 157.168 302.028L157.197 301.005H159.449ZM165.455 306.575L168.759 302.277V306.575H170.791V299.28H168.861L165.557 303.578V299.28H163.525V306.575H165.455ZM176.285 306.765C177.147 306.765 177.908 306.59 178.595 306.224V304.47C178.025 304.806 177.367 304.967 176.621 304.967C175.992 304.967 175.451 304.777 175.013 304.397C174.574 304.016 174.355 303.519 174.355 302.92C174.355 302.32 174.574 301.823 174.998 301.458C175.437 301.078 175.978 300.888 176.621 300.888C177.22 300.888 177.849 301.034 178.478 301.326V299.572C177.834 299.25 177.118 299.089 176.314 299.089C175.217 299.089 174.282 299.44 173.492 300.142C172.717 300.829 172.323 301.75 172.323 302.905C172.323 304.06 172.717 304.996 173.492 305.712C174.267 306.414 175.203 306.765 176.285 306.765ZM183.896 306.575V301.005H186.206V299.28H179.554V301.005H181.835V306.575H183.896ZM194.37 304.981C194.034 304.981 193.858 304.791 193.858 304.426V301.955C193.858 301.063 193.536 300.361 192.893 299.85C192.265 299.338 191.417 299.089 190.379 299.089C189.311 299.089 188.419 299.28 187.674 299.674V301.399C188.361 300.99 189.107 300.785 189.881 300.785C191.168 300.785 191.811 301.239 191.811 302.16V302.379C191.226 302.072 190.525 301.926 189.706 301.926C188.917 301.926 188.244 302.13 187.674 302.54C187.104 302.949 186.826 303.549 186.826 304.323C186.826 305.8 187.937 306.765 189.516 306.765C190.554 306.765 191.387 306.429 192.031 305.771C192.308 306.4 192.849 306.707 193.683 306.707C194.165 306.707 194.531 306.604 194.794 306.4V304.894C194.691 304.952 194.545 304.981 194.37 304.981ZM191.811 304.426C191.431 304.923 190.876 305.171 190.159 305.171C189.399 305.171 188.858 304.864 188.858 304.221C188.858 303.622 189.414 303.271 190.291 303.271C190.89 303.271 191.387 303.417 191.811 303.695V304.426Z" fill="white"/>
<path d="M146.75 323.402V315.727H146.037L144.228 316.812V317.591L145.95 316.604V323.402H146.75ZM153.659 323.402V322.668H149.613L151.674 320.683C152.299 320.091 152.738 319.587 152.99 319.181C153.242 318.764 153.374 318.293 153.374 317.777C153.374 317.13 153.132 316.604 152.661 316.198C152.189 315.793 151.608 315.595 150.895 315.595C150.007 315.595 149.251 315.891 148.604 316.473V317.383C149.273 316.692 150.018 316.352 150.819 316.352C151.86 316.352 152.562 316.966 152.562 317.876C152.562 318.304 152.442 318.687 152.211 319.027C151.981 319.367 151.586 319.795 151.016 320.332L148.428 322.799V323.402H153.659ZM158.431 320.793V320.058H155.349V320.793H158.431ZM162.213 323.402V315.727H161.5L159.691 316.812V317.591L161.412 316.604V323.402H162.213ZM168.715 323.402V321.286H169.987V320.552H168.715V315.727H167.937L163.803 320.639V321.286H167.926V323.402H168.715ZM167.926 316.801V320.552H164.746L167.926 316.801ZM171.096 323.304C171.315 323.523 171.688 323.523 171.908 323.304C172.127 323.084 172.127 322.712 171.908 322.492C171.688 322.273 171.315 322.273 171.096 322.492C170.877 322.712 170.877 323.084 171.096 323.304ZM173.095 319.565C173.095 320.694 173.38 321.637 173.961 322.394C174.542 323.15 175.31 323.534 176.242 323.534C177.174 323.534 177.931 323.15 178.512 322.394C179.093 321.637 179.378 320.694 179.378 319.565C179.378 318.435 179.093 317.492 178.512 316.736C177.931 315.979 177.174 315.595 176.242 315.595C175.31 315.595 174.542 315.979 173.961 316.747C173.38 317.503 173.095 318.446 173.095 319.565ZM178.578 319.565C178.578 320.486 178.358 321.253 177.92 321.867C177.492 322.47 176.933 322.777 176.242 322.777C175.551 322.777 174.992 322.47 174.553 321.867C174.126 321.253 173.906 320.486 173.906 319.565C173.906 318.655 174.126 317.887 174.564 317.273C175.003 316.659 175.562 316.352 176.242 316.352C176.922 316.352 177.481 316.659 177.92 317.273C178.358 317.887 178.578 318.655 178.578 319.565ZM181.99 323.402L185.576 316.33V315.727H180.51V316.462H184.644L181.135 323.402H181.99ZM185.541 323.304C185.761 323.523 186.133 323.523 186.353 323.304C186.572 323.084 186.572 322.712 186.353 322.492C186.133 322.273 185.761 322.273 185.541 322.492C185.322 322.712 185.322 323.084 185.541 323.304ZM193.289 323.402V322.668H189.243L191.305 320.683C191.93 320.091 192.368 319.587 192.62 319.181C192.873 318.764 193.004 318.293 193.004 317.777C193.004 317.13 192.763 316.604 192.291 316.198C191.82 315.793 191.239 315.595 190.526 315.595C189.638 315.595 188.881 315.891 188.234 316.473V317.383C188.903 316.692 189.649 316.352 190.449 316.352C191.491 316.352 192.193 316.966 192.193 317.876C192.193 318.304 192.072 318.687 191.842 319.027C191.612 319.367 191.217 319.795 190.647 320.332L188.059 322.799V323.402H193.289ZM194.618 319.565C194.618 320.694 194.903 321.637 195.484 322.394C196.066 323.15 196.833 323.534 197.765 323.534C198.697 323.534 199.454 323.15 200.035 322.394C200.616 321.637 200.901 320.694 200.901 319.565C200.901 318.435 200.616 317.492 200.035 316.736C199.454 315.979 198.697 315.595 197.765 315.595C196.833 315.595 196.066 315.979 195.484 316.747C194.903 317.503 194.618 318.446 194.618 319.565ZM200.101 319.565C200.101 320.486 199.881 321.253 199.443 321.867C199.015 322.47 198.456 322.777 197.765 322.777C197.074 322.777 196.515 322.47 196.077 321.867C195.649 321.253 195.43 320.486 195.43 319.565C195.43 318.655 195.649 317.887 196.088 317.273C196.526 316.659 197.085 316.352 197.765 316.352C198.445 316.352 199.004 316.659 199.443 317.273C199.881 317.887 200.101 318.655 200.101 319.565ZM207.36 323.402V322.668H203.314L205.375 320.683C206 320.091 206.439 319.587 206.691 319.181C206.943 318.764 207.075 318.293 207.075 317.777C207.075 317.13 206.833 316.604 206.362 316.198C205.89 315.793 205.309 315.595 204.597 315.595C203.708 315.595 202.952 315.891 202.305 316.473V317.383C202.974 316.692 203.719 316.352 204.52 316.352C205.561 316.352 206.263 316.966 206.263 317.876C206.263 318.304 206.143 318.687 205.912 319.027C205.682 319.367 205.287 319.795 204.717 320.332L202.129 322.799V323.402H207.36ZM213.667 323.402V322.668H209.621L211.682 320.683C212.307 320.091 212.746 319.587 212.998 319.181C213.25 318.764 213.382 318.293 213.382 317.777C213.382 317.13 213.141 316.604 212.669 316.198C212.198 315.793 211.616 315.595 210.904 315.595C210.015 315.595 209.259 315.891 208.612 316.473V317.383C209.281 316.692 210.026 316.352 210.827 316.352C211.869 316.352 212.57 316.966 212.57 317.876C212.57 318.304 212.45 318.687 212.219 319.027C211.989 319.367 211.594 319.795 211.024 320.332L208.436 322.799V323.402H213.667Z" fill="white"/>
<path d="M306.037 429.018V420.67H311.315V418.784H303.932V429.018H306.037ZM315.099 421.533C314.046 421.533 313.242 421.898 312.701 422.615V421.723H310.639V431.943H312.701V428.127C313.271 428.843 314.061 429.209 315.099 429.209C316.093 429.209 316.911 428.843 317.555 428.112C318.213 427.366 318.534 426.46 318.534 425.378C318.534 424.282 318.213 423.375 317.555 422.644C316.911 421.898 316.093 421.533 315.099 421.533ZM314.514 423.331C315.084 423.331 315.566 423.521 315.932 423.916C316.297 424.311 316.487 424.793 316.487 425.378C316.487 425.948 316.297 426.431 315.932 426.825C315.566 427.22 315.084 427.41 314.514 427.41C313.71 427.41 313.037 426.957 312.701 426.328V424.428C313.037 423.799 313.71 423.331 314.514 423.331ZM322.168 426.825C321.788 426.431 321.598 425.948 321.598 425.363C321.598 424.779 321.788 424.296 322.168 423.916C322.548 423.521 323.031 423.331 323.616 423.331C324.2 423.331 324.683 423.521 325.063 423.916C325.443 424.296 325.633 424.779 325.633 425.363C325.633 425.948 325.443 426.431 325.063 426.825C324.683 427.22 324.2 427.41 323.616 427.41C323.031 427.41 322.548 427.22 322.168 426.825ZM319.566 425.363C319.566 426.46 319.946 427.366 320.706 428.112C321.466 428.843 322.431 429.209 323.616 429.209C324.8 429.209 325.765 428.843 326.525 428.112C327.285 427.366 327.665 426.46 327.665 425.363C327.665 424.296 327.285 423.39 326.525 422.644C325.765 421.898 324.8 421.533 323.616 421.533C322.431 421.533 321.466 421.898 320.706 422.644C319.946 423.375 319.566 424.282 319.566 425.363ZM331.416 429.209C332.498 429.209 333.375 428.989 334.033 428.551C334.706 428.097 335.042 427.527 335.042 426.84C335.042 425.919 334.457 425.334 333.697 425.1C334.399 424.866 334.749 424.34 334.749 423.536C334.749 422.966 334.442 422.483 333.843 422.103C333.244 421.723 332.498 421.533 331.606 421.533C330.48 421.533 329.53 421.708 328.784 422.059V423.668C329.472 423.331 330.261 423.17 331.153 423.17C332.147 423.17 332.644 423.404 332.644 423.872C332.644 424.296 332.293 424.515 331.591 424.515H330.159V426.007H331.591C332.454 426.007 332.878 426.241 332.878 426.723C332.878 427.264 332.235 427.571 331.124 427.571C330.188 427.571 329.34 427.381 328.58 426.986V428.653C329.325 429.018 330.261 429.209 331.416 429.209ZM338.7 429.018V426.153H341.697V429.018H343.759V421.723H341.697V424.428H338.7V421.723H336.639V429.018H338.7ZM355.25 429.018V421.723H353.218V429.018H355.25ZM349.431 429.018C350.352 429.018 351.069 428.77 351.58 428.287C352.092 427.79 352.341 427.176 352.341 426.431C352.341 424.866 351.156 423.858 349.329 423.858H347.838V421.723H345.776V429.018H349.431ZM347.838 425.393H349.007C349.811 425.393 350.279 425.773 350.279 426.416C350.279 427.059 349.811 427.425 349.007 427.425H347.838V425.393ZM359.2 429.018L362.504 424.72V429.018H364.536V421.723H362.606L359.302 426.021V421.723H357.27V429.018H359.2ZM360.895 420.919C361.641 420.919 362.27 420.7 362.767 420.246C363.264 419.793 363.512 419.194 363.527 418.419H361.963C361.948 419.062 361.539 419.486 360.881 419.486C360.223 419.486 359.799 419.062 359.799 418.419H358.249C358.264 419.954 359.36 420.919 360.895 420.919Z" fill="white"/>
<path d="M305.701 445.846V438.17H304.988L303.179 439.256V440.035L304.9 439.048V445.846H305.701ZM307.631 442.008C307.631 443.138 307.916 444.081 308.497 444.837C309.079 445.594 309.846 445.978 310.778 445.978C311.71 445.978 312.467 445.594 313.048 444.837C313.629 444.081 313.914 443.138 313.914 442.008C313.914 440.879 313.629 439.936 313.048 439.179C312.467 438.423 311.71 438.039 310.778 438.039C309.846 438.039 309.079 438.423 308.497 439.19C307.916 439.947 307.631 440.89 307.631 442.008ZM313.114 442.008C313.114 442.929 312.894 443.697 312.456 444.311C312.028 444.914 311.469 445.221 310.778 445.221C310.087 445.221 309.528 444.914 309.09 444.311C308.662 443.697 308.443 442.929 308.443 442.008C308.443 441.098 308.662 440.331 309.101 439.717C309.539 439.102 310.098 438.795 310.778 438.795C311.458 438.795 312.017 439.102 312.456 439.717C312.894 440.331 313.114 441.098 313.114 442.008ZM318.838 443.236V442.502H315.756V443.236H318.838ZM322.62 445.846V438.17H321.907L320.098 439.256V440.035L321.819 439.048V445.846H322.62ZM329.528 445.846V445.111H325.482L327.543 443.127C328.168 442.535 328.607 442.03 328.859 441.624C329.111 441.208 329.243 440.736 329.243 440.221C329.243 439.574 329.002 439.048 328.53 438.642C328.059 438.236 327.478 438.039 326.765 438.039C325.877 438.039 325.12 438.335 324.473 438.916V439.826C325.142 439.135 325.888 438.795 326.688 438.795C327.73 438.795 328.432 439.409 328.432 440.32C328.432 440.747 328.311 441.131 328.081 441.471C327.85 441.811 327.456 442.238 326.886 442.776L324.298 445.243V445.846H329.528ZM331.011 445.747C331.23 445.967 331.603 445.967 331.822 445.747C332.041 445.528 332.041 445.155 331.822 444.936C331.603 444.717 331.23 444.717 331.011 444.936C330.791 445.155 330.791 445.528 331.011 445.747ZM333.009 442.008C333.009 443.138 333.294 444.081 333.876 444.837C334.457 445.594 335.224 445.978 336.156 445.978C337.088 445.978 337.845 445.594 338.426 444.837C339.007 444.081 339.292 443.138 339.292 442.008C339.292 440.879 339.007 439.936 338.426 439.179C337.845 438.423 337.088 438.039 336.156 438.039C335.224 438.039 334.457 438.423 333.876 439.19C333.294 439.947 333.009 440.89 333.009 442.008ZM338.492 442.008C338.492 442.929 338.273 443.697 337.834 444.311C337.406 444.914 336.847 445.221 336.156 445.221C335.466 445.221 334.906 444.914 334.468 444.311C334.04 443.697 333.821 442.929 333.821 442.008C333.821 441.098 334.04 440.331 334.479 439.717C334.917 439.102 335.477 438.795 336.156 438.795C336.836 438.795 337.395 439.102 337.834 439.717C338.273 440.331 338.492 441.098 338.492 442.008ZM341.905 445.846L345.49 438.774V438.17H340.424V438.905H344.558L341.049 445.846H341.905ZM345.456 445.747C345.675 445.967 346.048 445.967 346.267 445.747C346.487 445.528 346.487 445.155 346.267 444.936C346.048 444.717 345.675 444.717 345.456 444.936C345.236 445.155 345.236 445.528 345.456 445.747ZM353.204 445.846V445.111H349.158L351.219 443.127C351.844 442.535 352.283 442.03 352.535 441.624C352.787 441.208 352.919 440.736 352.919 440.221C352.919 439.574 352.677 439.048 352.206 438.642C351.734 438.236 351.153 438.039 350.441 438.039C349.552 438.039 348.796 438.335 348.149 438.916V439.826C348.818 439.135 349.563 438.795 350.364 438.795C351.405 438.795 352.107 439.409 352.107 440.32C352.107 440.747 351.987 441.131 351.756 441.471C351.526 441.811 351.131 442.238 350.561 442.776L347.973 445.243V445.846H353.204ZM354.533 442.008C354.533 443.138 354.818 444.081 355.399 444.837C355.98 445.594 356.748 445.978 357.68 445.978C358.612 445.978 359.368 445.594 359.949 444.837C360.531 444.081 360.816 443.138 360.816 442.008C360.816 440.879 360.531 439.936 359.949 439.179C359.368 438.423 358.612 438.039 357.68 438.039C356.748 438.039 355.98 438.423 355.399 439.19C354.818 439.947 354.533 440.89 354.533 442.008ZM360.015 442.008C360.015 442.929 359.796 443.697 359.357 444.311C358.93 444.914 358.37 445.221 357.68 445.221C356.989 445.221 356.43 444.914 355.991 444.311C355.563 443.697 355.344 442.929 355.344 442.008C355.344 441.098 355.563 440.331 356.002 439.717C356.441 439.102 357 438.795 357.68 438.795C358.359 438.795 358.919 439.102 359.357 439.717C359.796 440.331 360.015 441.098 360.015 442.008ZM367.274 445.846V445.111H363.228L365.289 443.127C365.915 442.535 366.353 442.03 366.605 441.624C366.857 441.208 366.989 440.736 366.989 440.221C366.989 439.574 366.748 439.048 366.276 438.642C365.805 438.236 365.224 438.039 364.511 438.039C363.623 438.039 362.866 438.335 362.219 438.916V439.826C362.888 439.135 363.634 438.795 364.434 438.795C365.476 438.795 366.178 439.409 366.178 440.32C366.178 440.747 366.057 441.131 365.827 441.471C365.597 441.811 365.202 442.238 364.632 442.776L362.044 445.243V445.846H367.274ZM373.581 445.846V445.111H369.535L371.597 443.127C372.222 442.535 372.66 442.03 372.912 441.624C373.165 441.208 373.296 440.736 373.296 440.221C373.296 439.574 373.055 439.048 372.583 438.642C372.112 438.236 371.531 438.039 370.818 438.039C369.93 438.039 369.173 438.335 368.526 438.916V439.826C369.195 439.135 369.941 438.795 370.741 438.795C371.783 438.795 372.485 439.409 372.485 440.32C372.485 440.747 372.364 441.131 372.134 441.471C371.904 441.811 371.509 442.238 370.939 442.776L368.351 445.243V445.846H373.581Z" fill="white"/>
<path d="M350.177 263.628L351.186 261.26H355.513L356.522 263.628H358.759L354.373 253.336H352.355L347.969 263.628H350.177ZM353.349 255.967L354.841 259.52H351.843L353.349 255.967ZM363.217 263.818C364.08 263.818 364.84 263.643 365.527 263.277V261.523C364.957 261.859 364.299 262.02 363.554 262.02C362.925 262.02 362.384 261.83 361.945 261.45C361.507 261.07 361.287 260.573 361.287 259.973C361.287 259.374 361.507 258.877 361.931 258.511C362.369 258.131 362.91 257.941 363.554 257.941C364.153 257.941 364.782 258.087 365.41 258.38V256.625C364.767 256.304 364.051 256.143 363.246 256.143C362.15 256.143 361.214 256.494 360.425 257.196C359.65 257.883 359.255 258.804 359.255 259.959C359.255 261.114 359.65 262.049 360.425 262.766C361.2 263.468 362.135 263.818 363.217 263.818ZM370.829 263.628V258.058H373.139V256.333H366.487V258.058H368.767V263.628H370.829ZM378.817 256.143C377.764 256.143 376.96 256.508 376.419 257.225V256.333H374.358V266.552H376.419V262.737C376.989 263.453 377.779 263.818 378.817 263.818C379.811 263.818 380.63 263.453 381.273 262.722C381.931 261.976 382.253 261.07 382.253 259.988C382.253 258.891 381.931 257.985 381.273 257.254C380.63 256.508 379.811 256.143 378.817 256.143ZM378.232 257.941C378.802 257.941 379.285 258.131 379.65 258.526C380.016 258.921 380.206 259.403 380.206 259.988C380.206 260.558 380.016 261.041 379.65 261.435C379.285 261.83 378.802 262.02 378.232 262.02C377.428 262.02 376.755 261.567 376.419 260.938V259.038C376.755 258.409 377.428 257.941 378.232 257.941ZM390.711 262.035C390.375 262.035 390.199 261.845 390.199 261.479V259.008C390.199 258.117 389.878 257.415 389.235 256.903C388.606 256.391 387.758 256.143 386.72 256.143C385.653 256.143 384.761 256.333 384.015 256.728V258.453C384.702 258.043 385.448 257.839 386.223 257.839C387.509 257.839 388.153 258.292 388.153 259.213V259.432C387.568 259.125 386.866 258.979 386.047 258.979C385.258 258.979 384.585 259.184 384.015 259.593C383.445 260.003 383.167 260.602 383.167 261.377C383.167 262.853 384.278 263.818 385.857 263.818C386.895 263.818 387.729 263.482 388.372 262.824C388.65 263.453 389.191 263.76 390.024 263.76C390.507 263.76 390.872 263.658 391.135 263.453V261.947C391.033 262.006 390.887 262.035 390.711 262.035ZM388.153 261.479C387.773 261.976 387.217 262.225 386.501 262.225C385.74 262.225 385.199 261.918 385.199 261.275C385.199 260.675 385.755 260.324 386.632 260.324C387.232 260.324 387.729 260.47 388.153 260.748V261.479ZM392.05 256.333L394.594 259.827L391.801 263.628H394.082L395.793 261.289L397.489 263.628H399.799L397.021 259.813L399.579 256.333H397.298L395.822 258.38L394.36 256.333H392.05ZM408.173 262.035C407.836 262.035 407.661 261.845 407.661 261.479V259.008C407.661 258.117 407.339 257.415 406.696 256.903C406.067 256.391 405.219 256.143 404.181 256.143C403.114 256.143 402.222 256.333 401.477 256.728V258.453C402.164 258.043 402.909 257.839 403.684 257.839C404.971 257.839 405.614 258.292 405.614 259.213V259.432C405.029 259.125 404.327 258.979 403.509 258.979C402.719 258.979 402.047 259.184 401.477 259.593C400.906 260.003 400.629 260.602 400.629 261.377C400.629 262.853 401.74 263.818 403.319 263.818C404.357 263.818 405.19 263.482 405.833 262.824C406.111 263.453 406.652 263.76 407.485 263.76C407.968 263.76 408.333 263.658 408.597 263.453V261.947C408.494 262.006 408.348 262.035 408.173 262.035ZM405.614 261.479C405.234 261.976 404.678 262.225 403.962 262.225C403.202 262.225 402.661 261.918 402.661 261.275C402.661 260.675 403.216 260.324 404.094 260.324C404.693 260.324 405.19 260.47 405.614 260.748V261.479ZM412.084 263.628V260.763H415.081V263.628H417.143V256.333H415.081V259.038H412.084V256.333H410.023V263.628H412.084ZM423.079 263.628C424 263.628 424.716 263.38 425.228 262.897C425.74 262.4 425.988 261.786 425.988 261.041C425.988 259.476 424.804 258.467 422.976 258.467H421.222V256.333H419.16V263.628H423.079ZM421.222 260.003H422.655C423.459 260.003 423.927 260.383 423.927 261.026C423.927 261.669 423.459 262.035 422.655 262.035H421.222V260.003Z" fill="white"/>
<path d="M351.42 280.587C352.154 280.587 352.779 280.346 353.273 279.853C353.777 279.359 354.029 278.745 354.029 277.989C354.029 277.276 353.788 276.684 353.305 276.234C352.834 275.774 352.242 275.544 351.551 275.544C350.509 275.544 349.709 275.993 349.303 276.684C349.336 275.061 350.093 273.405 351.913 273.405C352.472 273.405 352.988 273.57 353.47 273.899V273.12C353.02 272.802 352.472 272.649 351.847 272.649C349.764 272.638 348.47 274.601 348.514 276.991C348.514 278.12 348.777 279.008 349.292 279.644C349.808 280.269 350.52 280.587 351.42 280.587ZM351.376 279.831C350.18 279.831 349.457 279.063 349.325 277.747C349.468 277.32 349.72 276.969 350.104 276.684C350.487 276.399 350.904 276.256 351.354 276.256C351.891 276.256 352.33 276.41 352.691 276.728C353.053 277.046 353.229 277.462 353.229 277.989C353.229 278.526 353.053 278.965 352.691 279.316C352.341 279.655 351.902 279.831 351.376 279.831ZM358.937 277.846V277.112H355.856V277.846H358.937ZM362.719 280.456V272.78H362.007L360.197 273.866V274.644L361.919 273.658V280.456H362.719ZM364.65 276.618C364.65 277.747 364.935 278.69 365.516 279.447C366.097 280.204 366.865 280.587 367.797 280.587C368.729 280.587 369.485 280.204 370.067 279.447C370.648 278.69 370.933 277.747 370.933 276.618C370.933 275.489 370.648 274.546 370.067 273.789C369.485 273.033 368.729 272.649 367.797 272.649C366.865 272.649 366.097 273.033 365.516 273.8C364.935 274.557 364.65 275.5 364.65 276.618ZM370.132 276.618C370.132 277.539 369.913 278.307 369.474 278.921C369.047 279.524 368.488 279.831 367.797 279.831C367.106 279.831 366.547 279.524 366.108 278.921C365.681 278.307 365.461 277.539 365.461 276.618C365.461 275.708 365.681 274.94 366.119 274.326C366.558 273.712 367.117 273.405 367.797 273.405C368.477 273.405 369.036 273.712 369.474 274.326C369.913 274.94 370.132 275.708 370.132 276.618ZM372.16 280.357C372.379 280.576 372.752 280.576 372.971 280.357C373.191 280.138 373.191 279.765 372.971 279.546C372.752 279.326 372.379 279.326 372.16 279.546C371.94 279.765 371.94 280.138 372.16 280.357ZM374.159 276.618C374.159 277.747 374.444 278.69 375.025 279.447C375.606 280.204 376.374 280.587 377.306 280.587C378.238 280.587 378.994 280.204 379.575 279.447C380.157 278.69 380.442 277.747 380.442 276.618C380.442 275.489 380.157 274.546 379.575 273.789C378.994 273.033 378.238 272.649 377.306 272.649C376.374 272.649 375.606 273.033 375.025 273.8C374.444 274.557 374.159 275.5 374.159 276.618ZM379.641 276.618C379.641 277.539 379.422 278.307 378.983 278.921C378.556 279.524 377.996 279.831 377.306 279.831C376.615 279.831 376.056 279.524 375.617 278.921C375.189 278.307 374.97 277.539 374.97 276.618C374.97 275.708 375.189 274.94 375.628 274.326C376.067 273.712 376.626 273.405 377.306 273.405C377.985 273.405 378.545 273.712 378.983 274.326C379.422 274.94 379.641 275.708 379.641 276.618ZM383.054 280.456L386.64 273.383V272.78H381.574V273.515H385.708L382.199 280.456H383.054ZM386.605 280.357C386.824 280.576 387.197 280.576 387.416 280.357C387.636 280.138 387.636 279.765 387.416 279.546C387.197 279.326 386.824 279.326 386.605 279.546C386.386 279.765 386.386 280.138 386.605 280.357ZM394.353 280.456V279.721H390.307L392.368 277.737C392.993 277.144 393.432 276.64 393.684 276.234C393.936 275.818 394.068 275.346 394.068 274.831C394.068 274.184 393.827 273.658 393.355 273.252C392.884 272.846 392.303 272.649 391.59 272.649C390.702 272.649 389.945 272.945 389.298 273.526V274.436C389.967 273.745 390.713 273.405 391.513 273.405C392.555 273.405 393.256 274.019 393.256 274.929C393.256 275.357 393.136 275.741 392.906 276.081C392.675 276.421 392.281 276.848 391.71 277.386L389.123 279.853V280.456H394.353ZM395.682 276.618C395.682 277.747 395.967 278.69 396.548 279.447C397.129 280.204 397.897 280.587 398.829 280.587C399.761 280.587 400.517 280.204 401.099 279.447C401.68 278.69 401.965 277.747 401.965 276.618C401.965 275.489 401.68 274.546 401.099 273.789C400.517 273.033 399.761 272.649 398.829 272.649C397.897 272.649 397.129 273.033 396.548 273.8C395.967 274.557 395.682 275.5 395.682 276.618ZM401.164 276.618C401.164 277.539 400.945 278.307 400.507 278.921C400.079 279.524 399.52 279.831 398.829 279.831C398.138 279.831 397.579 279.524 397.14 278.921C396.713 278.307 396.493 277.539 396.493 276.618C396.493 275.708 396.713 274.94 397.151 274.326C397.59 273.712 398.149 273.405 398.829 273.405C399.509 273.405 400.068 273.712 400.507 274.326C400.945 274.94 401.164 275.708 401.164 276.618ZM408.423 280.456V279.721H404.377L406.439 277.737C407.064 277.144 407.502 276.64 407.755 276.234C408.007 275.818 408.138 275.346 408.138 274.831C408.138 274.184 407.897 273.658 407.426 273.252C406.954 272.846 406.373 272.649 405.66 272.649C404.772 272.649 404.015 272.945 403.369 273.526V274.436C404.037 273.745 404.783 273.405 405.583 273.405C406.625 273.405 407.327 274.019 407.327 274.929C407.327 275.357 407.206 275.741 406.976 276.081C406.746 276.421 406.351 276.848 405.781 277.386L403.193 279.853V280.456H408.423ZM414.73 280.456V279.721H410.684L412.746 277.737C413.371 277.144 413.809 276.64 414.062 276.234C414.314 275.818 414.445 275.346 414.445 274.831C414.445 274.184 414.204 273.658 413.733 273.252C413.261 272.846 412.68 272.649 411.967 272.649C411.079 272.649 410.323 272.945 409.676 273.526V274.436C410.344 273.745 411.09 273.405 411.891 273.405C412.932 273.405 413.634 274.019 413.634 274.929C413.634 275.357 413.513 275.741 413.283 276.081C413.053 276.421 412.658 276.848 412.088 277.386L409.5 279.853V280.456H414.73Z" fill="white"/>
</g>
</svg>
