<svg width="151" height="58" viewBox="0 0 151 58" fill="none" xmlns="http://www.w3.org/2000/svg">
<path d="M50.7659 53.1816C51.3172 52.6213 51.9806 52.3434 52.765 52.3434C53.5494 52.3434 54.2127 52.6213 54.7551 53.1726C55.2974 53.7239 55.5708 54.3918 55.5708 55.1672C55.5708 55.9426 55.2974 56.606 54.7461 57.1618C54.1948 57.7131 53.5314 57.991 52.747 57.991C51.9626 57.991 51.3038 57.7131 50.7569 57.1618C50.2146 56.6105 49.9412 55.9426 49.9412 55.1672C49.9412 54.3918 50.2146 53.7284 50.7659 53.1771M54.4099 56.8346C54.8627 56.3685 55.0912 55.8127 55.0912 55.1627C55.0912 54.5128 54.8671 53.9525 54.4189 53.4953C53.9662 53.0382 53.4149 52.8096 52.765 52.8096C52.115 52.8096 51.5548 53.0382 51.1021 53.5043C50.6494 53.9705 50.4208 54.5263 50.4208 55.1807C50.4208 55.8351 50.6404 56.3819 51.0931 56.8481C51.5458 57.3052 52.0971 57.5338 52.747 57.5338C53.397 57.5338 53.9572 57.3052 54.4099 56.8391M51.6623 56.476V53.7329H52.9443C53.5225 53.7329 53.8945 54.0691 53.8945 54.5576C53.8945 54.9252 53.6883 55.2076 53.3342 55.3151L54.1814 56.476H53.5001L52.7067 55.3868H52.2719V56.476H51.6623ZM51.3755 51.5904H52.0209C52.263 51.5904 52.3885 51.4918 52.3885 51.2811C52.3885 51.0705 52.254 50.9539 52.0209 50.9539H51.3755V51.5904Z" fill="white"/>
<path fill-rule="evenodd" clip-rule="evenodd" d="M55.2129 0L55.5526 0.321059C55.6363 0.41412 56.8228 1.78676 57.2184 4.3692C57.4464 5.85817 57.3673 7.46812 56.9857 9.14786C56.5018 11.2696 55.534 13.5171 54.1055 15.8296L53.7565 16.3926L54.1008 16.9557C56.9066 21.5296 58.3863 26.7968 58.3863 32.1897V35.8377L58.2932 35.7725L56.781 34.7116L56.6135 36.5542C56.0877 42.2635 53.4959 47.5819 49.3129 51.537C44.925 55.6875 39.1832 57.9814 33.1436 58.0001H1.67509V34.6744L0 35.8423V32.1943C0 26.8015 1.47966 21.5342 4.28544 16.9603L4.63907 16.3833L4.27148 15.8157C-2.2288 5.79768 2.68015 0.479262 2.82439 0.325712L3.16872 0C4.41108 0.209386 9.28746 1.10277 16.4764 3.28039L16.8254 3.38741L17.165 3.25712C18.7145 2.67084 22.986 1.31216 29.1885 1.31216C35.391 1.31216 39.6625 2.67549 41.2119 3.25712L41.5516 3.38741L41.9006 3.28039C49.1035 1.09812 53.9705 0.209386 55.2082 0H55.2129ZM52.449 16.281C59.0424 6.02569 54.8267 1.01903 54.8267 1.01903C54.8267 1.01903 50.4668 1.64719 41.4539 4.41575C41.4539 4.41575 36.8474 2.27535 29.1513 2.27535C21.4552 2.27535 16.8487 4.41575 16.8487 4.41575C7.8404 1.64719 3.48516 1.01903 3.48516 1.01903C3.48516 1.01903 -1.40983 6.08618 5.86286 16.281C2.78255 20.7944 0.981828 26.2524 0.981828 32.1339V33.7392L1.02836 33.7066V33.7392L2.65692 32.5201V56.9206H29.1513C34.6093 56.9206 37.5407 55.2036 39.1041 53.5425C40.5652 51.9883 40.8397 50.3179 40.8397 50.3179C40.8397 50.3179 42.9848 50.9368 45.744 52.905H45.7533C46.4233 52.4444 47.0469 51.9697 47.6285 51.4905C45.351 49.5641 41.2698 48.1851 40.6641 47.9805L40.6641 47.9805L40.6172 47.9646C40.6016 47.9593 40.5921 47.956 40.5892 47.9547C43.5632 48.044 47.1114 49.4403 48.9872 50.276C49.5083 49.7735 49.9876 49.2617 50.4343 48.7405C46.2279 46.4326 41.4958 46.1209 41.4958 46.1209C41.4958 46.1209 44.7064 45.6044 51.5184 47.3865C51.8907 46.8607 52.3141 46.2 52.6258 45.6742C52.6096 45.6672 52.5945 45.6614 52.5794 45.6556L52.565 45.65C52.5599 45.6481 52.5548 45.6461 52.5496 45.644C52.5441 45.6417 52.5385 45.6394 52.5328 45.637C48.1124 43.9014 42.1519 44.1899 42.1519 44.1899C42.1519 44.1899 44.1387 43.2825 47.8286 43.2453C49.6898 41.2585 55.9295 30.5704 48.1077 13.4473C48.1077 13.4473 54.6406 20.7153 55.2874 30.1796L53.5378 29.235C53.5378 29.235 54.1474 37.8897 50.9973 43.571C51.8674 43.7525 52.8213 44.0596 53.3843 44.2643C54.4312 42.1239 55.0082 40.044 55.3153 38.234C55.8876 34.8373 55.8783 32.6876 55.8783 32.6876L57.2835 33.7392V33.7066L57.3301 33.7392V32.1339C57.3301 26.2571 55.5293 20.7991 52.449 16.281ZM7.22155 49.2431C6.84348 48.802 6.04311 47.7253 5.99115 47.6553C11.0621 45.6093 16.1088 46.2419 16.0902 46.2419C10.6741 47.0608 7.22155 49.2431 7.22155 49.2431ZM10.2367 52.2536C10.2367 52.2536 10.0739 52.1 9.85051 51.8953C9.47827 51.5696 9.11998 51.2439 8.78031 50.9088C8.78031 50.9088 13.9964 48.0472 17.5699 48.1589C17.5699 48.1589 14.0057 49.7409 10.2367 52.2536ZM15.8995 39.0995C15.8995 34.3394 19.003 31.1195 19.003 31.1195C13.3775 32.4224 11.614 29.0489 11.614 29.0489C16.7556 29.0489 17.4861 27.6065 17.4861 27.6065C10.837 26.5363 13.1914 21.3621 13.1914 21.3621H13.21C13.7684 21.7855 15.1131 22.5672 17.8956 23.0418C17.8398 23.1675 17.7327 23.6607 17.7327 23.9352C17.7327 25.4009 18.9239 26.5921 20.3896 26.5921C20.8875 26.5921 21.5482 26.392 22.0554 25.936C22.5905 27.4157 22.181 29.0489 22.181 29.0489L24.6565 27.4994C24.6565 27.4994 24.5401 25.6987 23.4746 24.2144C22.5677 22.9037 21.1655 22.5142 19.9857 22.1865L19.9857 22.1865C19.6702 22.0989 19.3707 22.0157 19.1007 21.9205L18.9477 21.8663C17.7627 21.4474 17.0187 21.1843 16.3089 20.613H16.3136C14.9595 19.4311 14.9409 16.2112 18.0538 14.215C18.0538 14.215 13.9964 15.0107 11.2418 20.4734C8.48717 25.936 9.2968 31.1381 9.2968 31.1381C9.2968 31.1381 6.20253 23.8933 12.5353 14.1964C12.5353 14.1964 6.34678 19.2868 6.51894 28.9605C6.57477 36.061 9.02692 41.4818 10.4089 43.2267C13.1914 43.2453 15.7087 44.376 15.7087 44.376C15.7087 44.376 12.5446 44.3388 9.49222 44.7948C7.7613 45.0553 6.10016 45.5672 4.99274 46.1023C4.72752 45.6463 4.40646 45.0693 4.18777 44.6226C4.18777 44.6226 5.55111 43.9433 7.29599 43.5524C4.14124 37.4755 4.75544 29.2164 4.75544 29.2164L3.02451 30.161C3.15014 19.8824 12.0793 11.4139 12.0793 11.4139C10.9347 10.5996 8.13819 10.5764 8.13819 10.5764C9.98545 9.39449 12.2375 10.0227 12.2375 10.0227C10.9067 8.76633 8.43133 8.54299 8.43133 8.54299C11.2371 7.36112 14.0103 9.0967 14.0103 9.0967C14.0103 9.0967 10.6601 5.05787 4.82523 4.02024C4.82523 4.02024 3.67128 8.19401 8.10097 13.652L7.06334 14.899C7.06334 14.899 1.46574 7.51932 4.20638 2.78719C9.10137 3.33624 16.9836 6.20716 16.9836 6.20716C16.9836 6.20716 19.6126 5.17419 22.2508 4.60187C24.8891 4.0342 29.1932 4.02024 29.1932 4.02024C22.2508 4.60187 18.5982 7.17965 17.998 7.6403C21.5808 6.4212 28.1509 5.17419 29.1606 9.4038C30.389 4.61117 37.9455 6.4119 39.3694 9.07343C36.8428 7.89156 33.3204 7.40765 29.1606 9.63645C20.5525 5.02064 14.5454 12.4469 14.5454 12.4469C26.4991 6.23043 29.1606 13.0239 29.1606 13.0239C29.1606 13.0239 30.054 9.89702 34.6279 9.81792C39.267 9.81792 41.7843 13.4892 41.7843 13.4892C34.814 8.7989 29.1606 13.2565 29.1606 13.2565C23.4746 10.0831 19.1705 13.6381 19.1705 13.6381C20.278 13.2425 21.3109 12.9866 22.2415 12.9634C26.8713 12.8377 29.1606 16.1972 29.1606 16.1972C29.1606 16.1972 31.7291 12.4655 36.9451 13.0378C42.5288 13.9963 42.9755 17.7886 42.8172 18.8913C42.794 19.3892 42.6172 19.8871 42.2403 20.371C41.5423 21.1108 40.3884 21.5668 39.2158 21.9251C39.0487 21.9764 38.8339 22.0352 38.5937 22.1009L38.5935 22.101C37.8104 22.3152 36.7572 22.6034 36.2053 22.9488C35.4887 23.4001 35.3957 23.4792 34.9769 24.0422C34.9606 24.0609 34.9455 24.0806 34.9304 24.1004C34.9152 24.1202 34.9001 24.14 34.8838 24.1586C34.8838 24.1586 34.8792 24.1679 34.8745 24.1679C35.0374 23.4094 35.4934 22.4137 36.6892 21.1294C36.4379 20.8316 36.1681 20.5432 35.8889 20.2686C34.1487 18.561 32.3619 17.3512 29.8679 16.8719C31.7942 17.8677 34.2184 20.5711 34.2184 20.5711L32.7946 22.423C32.7946 22.423 33.1901 25.145 33.9486 31.4173C34.4418 35.512 34.5069 39.1134 34.5069 39.1134C34.5069 39.1134 32.4922 39.8998 29.1466 39.8998C25.8011 39.8998 23.7817 39.1134 23.7817 39.1134C23.7817 39.1134 23.8189 36.745 24.0981 33.6694C22.7534 36.6892 22.3765 38.8528 22.2741 39.7369C22.2415 40.0301 22.423 40.514 22.5254 40.6629C23.4478 42.0233 24.7178 42.4871 25.8602 42.9044C27.3515 43.449 28.6255 43.9143 28.6255 46.1907C28.6255 50.2109 23.6188 50.0387 23.6188 50.0387C20.5339 50.0387 15.8808 46.5955 15.8808 39.0995H15.8995ZM20.371 24.9682C20.8829 24.9682 21.3016 24.6006 21.3854 24.112C21.6227 24.2888 21.8367 24.4843 22.0275 24.689C21.739 25.3172 21.1062 25.7546 20.371 25.7546C19.366 25.7546 18.547 24.9403 18.547 23.9306C18.547 23.6235 18.6261 23.3303 18.7611 23.0791C18.9028 23.1206 19.0432 23.1596 19.1817 23.198L19.1829 23.1983C19.3076 23.2329 19.431 23.2672 19.5521 23.3024C19.4171 23.4792 19.338 23.6933 19.338 23.9306C19.338 24.4982 19.7987 24.9635 20.371 24.9635V24.9682ZM38.797 23.3024C39.0529 23.228 39.3182 23.1535 39.588 23.0791C39.723 23.335 39.8021 23.6235 39.8021 23.9306C39.8021 24.9356 38.9878 25.7546 37.9781 25.7546C37.2429 25.7546 36.6054 25.3172 36.3216 24.689C36.5124 24.4843 36.7264 24.2888 36.9637 24.112C37.0475 24.5959 37.4709 24.9682 37.9781 24.9682C38.5458 24.9682 39.0111 24.5075 39.0111 23.9352C39.0111 23.6979 38.932 23.4792 38.797 23.3071V23.3024ZM34.13 40.3232C34.13 40.3232 33.7299 40.9886 32.2688 41.3794L32.1059 41.4293C31.1049 41.7353 30.2915 41.9839 30.0354 42.6683C29.8586 43.1383 29.5049 43.3802 29.142 43.3989C28.779 43.3802 28.4254 43.1383 28.2486 42.6683C27.9925 41.9839 27.179 41.7353 26.1781 41.4293L26.0151 41.3794C24.5541 40.9932 24.1539 40.3232 24.1539 40.3232C24.1539 40.3232 26.4246 41.077 28.8628 41.1142H29.4212C31.864 41.077 34.13 40.3232 34.13 40.3232ZM29.1559 53.4541C25.5173 53.4541 22.8325 52.3513 22.8325 52.3513C27.5367 51.9697 29.1699 49.7921 29.1699 49.7921C29.1699 49.7921 30.7473 52.1652 35.4794 52.3513C35.4794 52.3513 32.7946 53.4494 29.1559 53.4541ZM33.7671 45.4927C33.7671 45.4927 35.3212 46.0743 39.5508 45.9906C39.5508 45.9906 36.8986 48.3311 32.2363 46.8654C32.2363 46.8654 33.8509 49.8293 39.1088 47.9914C37.6756 49.3687 36.0192 50.0341 34.6651 50.0341C34.6651 50.0341 29.6585 50.397 29.6585 46.186C29.6585 44.2085 30.5984 43.6687 31.8501 43.1104C33.1017 42.5567 38.0479 41.7424 40.4302 42.7428C39.5834 43.9293 37.8757 45.153 33.7624 45.4927H33.7671ZM42.3706 31.1148C42.3706 31.1148 44.5016 35.847 42.3519 40.3976C43.129 34.1905 39.267 29.1187 39.267 29.1187C41.1608 29.5514 44.8274 27.6018 45.5998 23.9864C45.5998 23.9864 46.6793 29.4816 42.3706 31.1148ZM44.618 8.58021C43.4454 7.1145 42.1751 6.43516 41.4213 6.13737C42.5613 5.7279 49.5502 3.27575 54.0357 2.77323C54.0357 2.77323 47.0748 5.67672 44.618 8.58021ZM17.4862 19.1473C18.0306 19.594 18.7471 19.9569 19.5521 20.2314C20.841 18.6029 22.5626 17.3372 24.5448 16.6021C21.8693 16.63 19.4218 17.5792 17.4908 19.1473H17.4862ZM38.8806 20.2919L38.8842 20.2906L38.8853 20.2919H38.8806ZM40.9465 19.2077C40.3983 19.6537 39.6831 20.0116 38.8842 20.2906C37.5955 18.6627 35.8742 17.3928 33.8926 16.6625C36.5634 16.6904 39.0155 17.6396 40.9465 19.2077ZM24.0704 20.5711L25.4942 22.423L25.4896 22.4184C25.4896 22.4184 25.35 23.7817 25.0801 25.6941C25.0801 25.6941 24.5869 22.7441 21.6183 21.1295L22.4 20.2687C24.1402 18.5564 25.927 17.3512 28.421 16.872C26.4946 17.8677 24.0704 20.5711 24.0704 20.5711ZM18.0444 44.0595C18.0444 44.0595 20.101 45.0134 25.9127 45.5345C25.9127 45.5345 23.5024 46.2651 19.096 46.0045C18.4306 45.3298 18.0444 44.0595 18.0444 44.0595ZM26.6683 46.8756L26.6712 46.8746V46.8699L26.6683 46.8756ZM26.6683 46.8756C26.6097 46.9895 25.6452 48.8009 23.5676 48.8009C22.1624 48.8009 21.2504 48.4752 20.2267 47.5819C21.4454 47.6609 24.1704 47.7121 26.6683 46.8756ZM17.2862 40.2718C17.3198 41.0128 17.4516 41.5631 17.5983 42.1754C17.6349 42.3283 17.6725 42.485 17.7097 42.6495C17.8653 42.6853 18.0848 42.7508 18.3589 42.8326L18.3591 42.8327C19.3301 43.1226 20.9914 43.6186 22.9722 43.7383C21.0226 42.9473 18.8776 41.663 17.2909 40.2718H17.2862Z" fill="white"/>
<path fill-rule="evenodd" clip-rule="evenodd" d="M77.9816 11.6674C75.4985 10.9278 73.867 10.4079 73.1274 10.1121C72.4237 9.78037 72.0517 9.4442 72.0517 9.11252C72.0517 8.48052 72.8316 8.14884 74.351 8.14884C75.8705 8.14884 77.6141 8.40881 79.5415 8.92874C81.4688 9.41283 83.0645 10.0403 84.324 10.7799V3.36629C81.3971 1.99473 78.282 1.29102 74.9472 1.29102C68.1297 1.29102 63.7909 4.03414 63.7909 9.33214C63.7909 13.7427 66.9419 16.0421 72.3161 17.6332C74.4272 18.2652 75.875 18.7448 76.6146 19.081C77.3541 19.4127 77.7262 19.7489 77.7262 20.1209C77.7262 20.9367 76.7266 21.3445 74.7231 21.3445C72.9795 21.3445 71.0163 20.9725 68.8289 20.2688C66.6416 19.5651 64.9742 18.7135 63.7909 17.7139V25.4951C66.7178 27.3462 70.3125 28.2741 74.5752 28.2741C78.022 28.2741 80.7651 27.4942 82.8404 25.9747C84.9515 24.4193 85.9914 22.3441 85.9914 19.7489C85.9914 15.7821 83.3603 13.2989 77.9861 11.6674H77.9816ZM89.232 22.734C89.232 25.504 91.4776 27.7541 94.2476 27.7541H97.1969V1.80641H89.2275V22.734H89.232ZM101.478 1.80641H109.447V20.8962H121.576V27.7541H106.498C103.723 27.7541 101.478 25.504 101.478 22.734V1.80641ZM149.115 1.81089L139.924 13.8524L150.966 27.7496H141.182L132.437 16.5574V27.7496H124.467V1.80641H132.437V11.4836L138.259 3.77859H138.268C139.182 2.58184 140.621 1.81089 142.244 1.81089H149.115ZM110.792 35.154C111.545 33.3387 113.338 32.0568 115.427 32.0568H115.431H119.981L130.518 57.9955H121.957L120.102 53.2533H111.653L109.761 57.9955H101.536L110.792 35.154ZM115.875 41.1378L113.947 47.2874H117.766L115.875 41.1378ZM99.0078 32.0568L93.5619 45.9562L88.6673 32.0568H82.6656L77.7755 45.9562L73.6742 35.2078C72.9347 33.3611 71.1283 32.0568 69.0172 32.0568H63.7909L73.4322 56.6777L73.9476 58H80.8772L85.6373 44.5846L90.3302 58H97.1118L107.502 32.0613H99.0168L99.0078 32.0568ZM140.697 34.3562C141.589 32.9757 143.14 32.0568 144.911 32.0568L144.915 32.0613H150.921L141.432 46.5389V58H133.463V46.7227L124.01 32.0568H133.015L137.537 39.3897L140.693 34.3562H140.697Z" fill="white"/>
</svg>
